<svg version="1" xmlns="http://www.w3.org/2000/svg" width="933" height="1307" viewBox="0 0 700 980"><path d="M18 4C11 6 5 12 3 19c-2 5-2 51-2 471 0 421 0 467 2 472 1 4 2 6 5 9 9 9-24 8 342 8s333 1 342-7c3-3 4-6 5-10 2-5 2-51 2-472 0-420 0-466-2-471-1-4-3-7-6-10-8-8 25-7-341-7C63 2 22 2 18 4zm668 5l7 8 2 4v939l-2 4-7 8-4 3H18l-4-3-7-8-2-4V489L6 19l3-4 7-7 4-2h662l4 3z"/><path d="M59 490v433h582V57H59v433zm573 0v423H69V67h563v423z"/><path d="M74 490v417h276l276 1V73H74v417zM303 79l9 8c5 5 6 7 6 10v3l-6-6-10-7c-6-2-11-1-14 2s-5 4-6 1-1-5 1-6v-2l-3 2c-5 5-3 12 3 11 1 0 2 0 2 2 0 3-3 4-8 4-4-1-4-1-3 1l2 3h-5c-3-2-3-10-2-16l2-4-4 1c-4 0-10-2-10-5 0-2 1-2 8-1 5 0 10 0 17-2 9-2 15-2 21 1zm113-1l16 1 11 1v2c0 2-6 4-10 4l-4-1 2 4c2 5 1 13-1 15l-4 2c-2 0-3-1-1-2l2-3c1-2 1-2-1-1-5 3-11 0-11-4 0-1 0-2 2-1 6 1 8-7 3-11l-3-2v1c3 2 2 7 0 8s-3 1-4-1c-3-3-9-5-15-3-4 1-13 8-14 11l-1 1c-2-1 0-6 3-11 10-11 20-14 30-10zm-263 1l4 4c6 2 11 8 13 17 0 4 0 4 1 1s3-4 5-1 1 6-1 6l-5 1c-4 0-4 0-4-2 0-3-4-13-5-14v2c2 3 4 12 3 13l-8 4c-2 0-2-1-2-4 0-5 2-6 5-3l2 2c2 0 1-2-2-5-2-1-3-4-4-6l-3-9-1-6c0-2 2-2 2 0zm72 1l6 2 1-2c1-1 1-1 3 1 4 3 11 5 22 6l11 2-4 1c-2 1-9 3-15 3l-16 4c-4 1-5 1-5-3 0-2 0-2-5-2l-15-3-14-3c-5-1-4-3 2-6 9-4 20-4 29 0zm94 0l-1 3c-3 3-7-1-5-5 2-2 5-1 6 2zm21 0c0 3-3 4-5 3s-2-2-1-4c0-3 5-2 6 1zm27 0l-1 3c-3 2-7-2-5-5 2-2 5-1 6 2zm21-1c1 4-5 7-7 3 0-2 2-5 4-5l2 2zm117 2l5 3-9 3a415 415 0 0 0-24 5c-5 0-5 0-5 2 0 4-1 4-5 3-2-1-9-3-15-3l-15-4-4-1 11-2c10-1 16-3 21-6 3-2 3-2 4 0 0 2 0 2 3 0 8-3 11-4 19-3 6 0 10 1 14 3zm42 7l-6 12c-3 5-3 7 0 3 3-3 5-3 5 0l1 5c0 2-1 2-2 2-2 0-1 1 2 2l6 2-1-2c-3-6 4-19 12-25 9-7 19-9 33-5 9 2 14 2 18 0l3-1c1 1-5 8-8 9l-3 1 3 3c2 3 3 6 5 18l2 9c2 3-2 4-5 0-2-2-3-2-5-2-3 1-8 0-8-1l4-3c6-2 7-10 4-20l-2-3-5-2c-4-2-4-2-3 0v7l-6-2c-7-4-11-4-18-1-6 2-14 9-14 13 0 2 0 2 3 0 3-1 6-2 7 0 1 0-5 9-7 9v-2c2-3 1-3-2-1-1 1-3 2-4 1-2 0 0 1 3 3 8 4 15 11 16 16 1 3 3 4 10 9 21 13 30 29 25 44-2 7-5 11-10 15-8 6-16 6-22 0-3-4-4-7-2-12 2-4 5-5 9-5s7 1 9 5l2 3 1-3c2-5 2-10 0-15s-8-9-18-16c-8-4-11-7-6-6 3 0 14 6 18 10 9 7 13 22 9 28-5 7-14 10-17 7-3-2-2-6 0-7 3-2 1-3-2-1s-3 8 0 11c4 4 9 4 15 0 5-2 6-3 8-8 4-7 4-13 1-19-4-8-8-11-19-17l-10-5-1-5c0-4 0-4-1-2-3 7-12 12-23 12-10 0-18 2-19 6l-4 4-7 10c-6 9-8 10-12 6l-5-2 2 3 7 3 6 3 3 2 1-2c1-3 4-5 8-5s6 1 8 5c1 3 1 3-4 0l-5-2c-3 0-1 8 2 12l11 8 8 6 4-5 4-4-2-4-10-11c-10-8-13-13-12-20 2-13 5-15 4-3 0 7 0 8 2 11l6 6 4 2-2-3c-5-5-5-6-1-6l-1-1c-4-3-4-5 0-4 2 0 2 0 1-2-3-3-4-4-1-4 3 1 4 0 2-1-2-2-1-3 1-2 1 0 2 0 1-1 0-2 4-4 6-4s2 0-1 6l-3 8 1 3 6 9c8 8 11 13 11 19s-1 7-5 9l-5 5c-1 3-1 3 2 5 4 2 11 2 15 0 2-1 3-2 3-4 0-1 0-2-1-1 0 2-4 1-5-1l1-3c8-5 14 7 8 14-5 4-11 6-22 6-7 0-8 0-6 1 2 2 8 4 10 4 4 0 4 2 0 4-5 2-12 1-18-5l-4-3 3 7 3 7 8 1c5 0 6 0 8 2 3 3 2 4-3 3h-3v4c0 8 10 17 17 16 3-1 4-1 3 1l-3 4c-3 2-3 2-1 2 8 2 20-1 22-5 2-3 1-9-1-11s-3-3-1-3c3 0 8 3 9 6 2 2 2 2 3 1v-8c-1-9-6-15-15-16-10-1-16 4-16 11 0 5 3 8 7 8 6 0 8-4 3-5-4-1-4-4-1-6 7-4 10 6 4 12-5 5-14 4-18-3-7-14 15-32 30-24l4 2-1-4v-16l-2-7c0-3 2-6 10-12 2-1 3-3 3-5 0-4 2-4 3 0 0 3-2 8-5 10-4 1-6 5-6 8s0 3 4 1c3-2 8-3 9-1l-1 3c-2 2-2 5-3 13 0 9 0 12 2 21l3 14c0 14-11 26-22 26-4 0-5 2-2 4 2 3 6 3 6 2 0-2 5-5 8-5l3 2c2 3 0 5-4 7l-3 2 4 3c6 4 8 9 6 13-1 2-2 1-3-4 0-2-1-4-3-5l-6-6-5-3c-2 0-10-5-10-8l-3-2-5-1 1 2 12 12c7 8 9 11 14 22l9 20c2 8 2 10 2 23s0 14-2 18c-4 9-9 10-5 2 3-7 4-16 3-25-1-8-5-24-8-28-1-3-1-3-1 1l-2 6c-2 3-6 4-8 2-1-2-1-2 2-3 8-1 5-17-5-26l-14-10c0 2-4 7-6 7l-1-4c0-10-7-29-12-31l-4 3c-4 4-7 4-11 1-2-3-3-7-1-10 1-1 5-1 6 1l-2 1c-3-1-3 0-1 3 3 5 9 0 6-7 0-2-2-3-7-6l-6-3v4c0 11-3 11-6 1-2-8-3-10-13-21l-11-15-18-24c-5-6-6-7-7-5s-4 1-4-2l3-1c2 0 1-1-3-6-7-9-25-28-32-33-8-5-17-10-27-12-11-2-12-2-5 0 7 3 11 6 15 13l4 6-12-1-3-1c0 2 8 8 12 9 5 2 15 1 19-1 3-1 5-1 3 1v3l-1 2-1 1c0 2-7 5-10 5-7 0-17-6-21-12-2-3-2-3-1 4 0 7-1 8-7 2-6-5-8-8-9-18-2-12-3-13-3-3l-3 12c-5 10-19 14-19 5v-2l2-1c2 0 2 0 2 3 0 2 0 2 2 1 5-1 8-3 10-6 2-6 1-7-1-6-4 0-5-2-3-4 3-2 3-12 1-17l-4-4c-5-2-16 0-20 3-1 2-1 2 1 2 3 0 5 2 5 3l-26 1c-19 0-26 0-23 1l6 3c2 2 3 2 4 1h6c4-3 7 3 5 9-1 2-2 2-3 1-2-2-3-2-3 0 0 1-2 2-3 0h-4c-1-2-1-2-2-1s-1 1-2-1l-3-3c-2-2-1-3 1-3 2 1 2 1 0-1-3-4-13-1-13 3 0 5 5 10 6 6l2-2c1-1 4 2 4 4 0 5-8 6-13 1-3-2-4-3-4-7s1-6 3-8l6-3 2-1c0-1 1-2 5-2 3 0 4-1 3-2-2-2-7-4-12-5s-6-1-10 1c-3 2-4 3-5 6-1 6 0 13 1 15l2 2c0 2-3 3-5 1s-1 1 1 6c1 3 2 5 5 6 5 3 7 2 6-1 0-3 3-3 4 0v4c-2 4-13 1-18-6-3-4-4-13-4-18v-3l-3 8-4 16-11 8-1-6 1-6-3 3c-3 4-5 6-9 8-10 5-21 3-22-5l-1-3c-2-2 1-2 3-1 2 2 5 2 10 2 9 0 14-2 19-8l3-3-4 2-8 1h-4l4-7c4-5 5-7 11-10 7-3 6-4-3-1-18 4-38 19-55 42-5 6-6 7-4 7l2 3c-1 2-3 3-4 0a312 312 0 0 0-24 30l-14 18c-7 7-8 9-11 17-3 11-6 11-6 0v-4l-6 3c-7 4-9 8-7 12 2 3 4 4 6 1 3-2 2-4-1-3-2 0-2 0-1-1 0-1 1-2 3-2l3 4c0 3 0 5-2 7-4 3-7 3-11-1l-4-3c-1 0-8 12-10 18l-1 11-2 6c-2 0-5-3-5-5 0-3-2-3-7 1-13 11-17 16-17 26 0 5 1 7 3 7 3 0 4 1 2 3-3 3-8-2-9-8-1-3-1-3-4 6-6 18-7 34-2 45l1 6c-1 1-5-3-7-8-2-7-2-26 0-35 6-22 14-35 29-51 9-9 9-10 6-9-2 0-5 2-7 5l-8 5-9 6c-5 5-6 6-6 9 0 4-1 5-3 3-2-3-1-6 5-12l5-5-4-2c-5-2-5-5-2-7 3-1 8 0 10 3 1 2 4 2 7-1v-3l-4-1c-4 0-11-4-14-8-7-8-8-16-5-31 3-9 3-12 3-21l-2-13-2-4c0-2 6-1 9 2l4 2v-4c0-3-1-4-6-9-5-4-5-5-5-8 1-4 1-4 3-3l1 3c0 2 1 4 5 7l7 6c1 2 1 7-2 11v6l1 8-1 4 4-1c10-6 27 2 30 14 3 13-12 22-20 12-5-6 1-16 6-10 3 2 1 5-3 5-1-1-2 0-2 1 0 4 9 6 11 2 2-3 2-9 0-12-5-7-19-7-25 0-3 4-4 12-3 18 0 3 1 4 1 2s4-7 8-8c3 0 4 1 1 3-3 4-3 9 1 12 3 4 7 5 14 5 6 0 10-1 6-2l-3-4-2-3 3 1 6-1c5-2 11-8 12-12 1-6 1-7-3-7-4 1-5 0-2-3 1-2 3-2 7-2l8-1c1-1 3-4 3-7 2-5 1-6-1-3-4 5-15 7-19 3-3-2-3-2 5-4l6-3c2-1 2-1-6-1-15 1-24-4-24-13 0-7 7-11 11-5 1 2 1 2-1 3-1 1-2 1-3-1-2-1-2-1-2 1 0 3 4 5 9 5s12-2 12-3l-4-7c-11-4-9-16 4-29 3-4 6-7 6-9 1-4 0-10-3-13-2-3-3-4-1-4 3 0 7 2 7 4-1 1 0 1 1 1 2 0 3 1 1 3-1 1-1 1 1 1 4-1 4 0 1 3l-3 2h3c4-1 4 1 0 4l-3 2 3-1h3l-2 2-4 5-3 2 4-1 7-5 3-3v-9c-1-9 0-11 2-7 1 3 2 12 1 16 0 3-2 5-11 14-12 12-13 13-8 19l3 4 8-6c11-7 14-10 15-13 1-4 0-7-1-7l-5 2c-3 2-4 2-4 1 0-3 5-6 9-6 3 0 8 4 8 6l3-1 6-3 6-3c5-3 3-4-2-1s-7 2-12-5c-12-19-13-20-29-21-14 0-21-4-24-13-1-3-1-3-1 1 0 6-1 8-12 13-9 5-13 8-17 16-3 6-4 10-2 16 4 11 19 18 25 11 4-4 2-11-3-12-2-1-1 0 1 2 4 4 4 6-1 8-3 1-4 1-8-1l-7-6c-2-3-2-4-2-10 1-7 4-13 10-19 5-4 16-10 20-10 3 0 2 1-4 4-7 4-19 13-21 17-3 4-3 13-1 17l1 2 2-3c5-8 17-6 19 4 0 5-2 8-7 11s-10 2-17-2c-9-6-14-18-12-28 2-11 12-24 27-33 6-3 7-5 9-9l6-9c7-7 32-15 49-17h8l3-7c2-7 5-8 12-8 5 0 12 2 12 4l-2 1c-5 0-6 1-6 5 0 9 5 14 12 14 3 0 4 1 1 2l-4 1c-4 0-4 2 0 3l9 3c8 4 20 5 26 4l11-6c6-5 8-6 12-6 3 1 3 2-1 3l-3 1h3c4 0 4 1 1 3l-3 1h3l2 1c-1 2-6 3-8 3-2-1-1-5 1-7h-1c-2 1-5 4-3 4l1 1c0 2-2 3-5 3l-2 1-4 2-6 2h-22l-5-1 2-1h-5l-6-1 1-1h-1c-4 0-8-1-6-2l-2-1c-5-1-3-7 3-7l3-1-10 1v-1c1-2 1-2-1-1l-2-1v-2l-2-3v-10l1 1 2-2 1-4c-1-1-5 2-6 5-1 5-1 5-4 7l-3 2 3 3c5 5 6 9 5 23l1 15c1 4 13 14 14 13l4 1h5c2 0 2-1-1-2-3-2-6-7-6-10 0-5 4-9 10-9 2 0 2 1 2 3 0 3-2 5-5 3-2-1-2-1-2 2s3 7 7 8c4 0 9-2 19-9l44-22c10-3 25-4 33-2 6 2 14 10 14 13l1 2-1-7c-5-12-15-22-27-26-5-1-6-2-6-3v-2c-1 0-4 3-4 5l-2 3c-2 2-7 3-7 1 0-3 4-7 7-7 2-1 2-1 1-2-2-1 3-3 10-3 13 0 18 3 18 10l1 3c2 0 0-6-2-9-3-5-4-7-4-10 0-4 2-10 3-10l2-1c2 0 2 1 2 7 0 7 1 9 6 25l7 21v5h6c4 0 5 0 4-1-2 0-3-1-3-3l3-9c3-1 5 3 5 9l-1 4h5c3 0 4 0 3-1-1-3 0-8 7-24 6-16 6-18 6-25 0-9 1-10 5-5 2 3 3 10 1 14l-2 3 4-1c6-2 20-2 22-1v2l2 2c4 1 6 4 6 6s-1 2-3 2c-3 0-4-1-5-4-2-4-4-6-5-6v1c2 1 0 3-2 3l-9 3c-9 5-16 13-21 23-3 8-4 8-2 8l1-1c0-3 8-11 13-13s7-2 16-2l18 3a264 264 0 0 1 58 30c6 2 14-3 12-9 0-2 0-2-1 0-2 2-5 1-6-1-2-2 0-5 4-5 7 0 10 9 6 15l-5 5c-3 1-2 1 5 1 5 0 6-1 12-6 7-8 8-10 7-23-1-12 0-19 5-23l3-4-3-1c-2-1-3-3-4-6 0-2-1-4-3-5s-4-1-2 1c1 2 1 5-1 8v2l2-4c1-3 3-4 3-1 0 5-1 11-3 11v1c0 2-5 4-7 3h-3c-1 0-1 1 2 1 4 2 5 6 1 7l-2 1v1l-5 1h-2l1 1-6 1h-5l2 1-5 1h-20c1 1 1 1-1 1l-4-2-6-2-5-2c-3-1-4-3-2-4l-1-2c-2-2-2-2-1 2v3h-4c-4-1-5-2-5-3l3-1h2l-2-1c-3-1-4-3-2-3v-1c-2-1-1-3 2-3 4 0 9 3 15 8 5 5 9 5 18 4 8-1 23-7 23-8h2l4-1v-1c-1 1-11-1-10-2l3-1c7 0 11-6 11-14v-4l-1 5c-1 9-3 10-6 5 0-2-1-3-2-3l-1-2c-1-2 2-5 5-5h3l-3-1c-3 0-3 0-2-2 4-4 15-5 20-1l4 7 2 6 10 1 14 2h3c-3-2-4-4-2-10v-4l-2 6-1 6h-5c-6-1-6-2-5-6s4-4 5 0c1 3 1 3 2-1 0-6 4-12 9-16l7-4c3-3 3 0 0 8zm-401-7c1 2-1 5-3 5-3 0-5-4-3-6 2-1 5-1 6 1zm414-1c2 2 1 5-1 6h-4c-2-2 0-7 2-7l3 1zm-433 2c10 3 21 16 21 26 0 4 0 5-2 6-3 1-3 1-6-1l-3-2 1 2v3l-7-8c1-2 5-2 8 0s4 1 1-4-10-10-15-11c-6-1-14 0-18 3l-3 2-1-2v-5c1-3 1-3-3-1l-5 2c-1 0-3 7-3 13s2 9 7 11c3 1 3 1 2 3h-9c-1-1-2 0-3 2s-5 4-6 2l1-6 2-10c0-4 2-9 5-13 2-3 2-3 0-3s-8-6-8-8 1-2 5 0c4 1 10 1 20-2 6-1 14-1 19 1zm53 0c1 2-1 5-4 5-2 0-3-3-2-6 1-2 5-1 6 1zm346 0v4c-2 2-5 1-6-2 0-4 4-5 6-2zm-178 4l-2 1c-2 0-2-3-1-5 1-1 1-1 2 1l1 3zm8-1c0 2-3 3-3 1v-3c1-2 1-2 2-1l1 3zm-12 2c-1 1 0 3 2 4 4 2 5 2 5 1l-2-1c-3-1-3-2 1-3 3 0 5 2 3 3v1l4-4 1-2 1 1c0 1 1 2 3 2 7 0 10 5 6 10-1 2-1 1-4-1-3-4-6-4-4-1s0 6-4 6l-4-2-1-3-3 3c-4 4-9 2-8-3 1-4-1-4-4 0-4 3-5 2-5-3 0-4 2-6 7-6 3 0 4-1 3-2l1-1 2 1zm-78 13c-2 7-4 10-11 14-10 6-16 6-20 2l-3-2 4-1h3l-3-2c-3-3-5-7-2-9 2-3 3-2 3 1 1 2 3 4 8 4l3 1-2-3-2-4c0-1 3-1 5 1l5 1c3 0 4-1 8-5l5-5-1 7zm33-4c5 4 5 5 0 5-8 0-12-3-9-6 2-2 5-1 9 1zm111 0c2 3-1 5-8 5-4 0-5 0-4-2l9-5 3 2zm29 3c4 3 5 4 8 4l5-1 3-2c1 0 1 3-1 5s0 3 3 2c4-1 6-3 6-5 0-3 3-2 4 0 2 2-1 8-4 10-2 1-2 1 1 1s4 1 1 4c-2 1-4 2-7 1-6 0-18-6-20-11-2-3-5-13-4-13l5 5zm-223 0c3 2 2 3-1 6l-2 4c0 2-2 1-4-2-1-3-2-8 0-9 1-2 6-1 7 1zm-96 1c4 3 6 5 7 10 0 6-2 11-7 13l-6 4-5 2c-3 0-3 0-3 3 0 2 1 2 4 2h3c4-1 4 1 1 4-2 3-3 3-7 3-3 0-5-1-6-3-2-2-2-3-1-7 1-3 0-4-1-4l-5-5 4 1 8 1c4 0 5-1 7-4 2-4 5-5 5-3s3-1 4-4-1-9-3-10c-5-3-11 0-11 5 0 2 0 2 1 1 1-2 4-3 5-1 2 2-1 7-4 7-2 0-6-4-6-8 0-7 10-12 16-7zm473 1c4 4 4 8 1 12-4 4-8 2-8-3 0-2 0-3 2-3l3 2c1 1 1 1 1-1 0-6-7-8-12-4-3 3-3 10 0 12 1 2 2 2 2 1 2-2 3-1 5 3 3 4 3 4 8 4l7-2c4-2 5 0 1 3-3 3-3 3-2 7 0 4 0 5-2 7-5 4-14 2-14-3 0-2 0-2 4-2 5 0 5 0 5-2 0-3 0-3-3-3l-6-2-5-4c-8-4-9-14-2-21 3-3 4-4 8-4 3 0 5 1 7 3zm-240 2c3 2 3 6 0 11-2 4-4 4-6 0-3-5-2-9 0-11 3-2 3-2 6 0zm-59 1c0 1-4 3-5 2l-1 2c1 3-3 8-7 8-3 0-4-1-1-4l4-2c3 0 3 0 1-1s-3-2 0-4c1-2 9-3 9-1zm121 0c3 1 2 4 0 5l-3 1h3c2-1 7 2 7 5l-3 1c-3 0-7-5-7-7l-1-2-5-3h9zm-193 3c3 4 2 5-2 6-5 0-6-2-4-6s3-4 6 0zm262 0c2 2 2 3 1 5h-5c0 2-3 1-3 0-1-2 3-8 4-8s3 1 3 3zm-180 4l-1 2v1c2 0 1 5-2 8-4 4-8 4-9 0l3-6 5-4c2-2 4-2 4-1zm96 1l5 4c2 2 3 3 3 6s0 3-3 3l-6-3c-3-3-3-4-2-6v-6l3 2zm-111 5l1 3c0 2-3 4-6 4-4 0-4-3-1-6 2-2 4-2 6-1zm128 1c3 4 2 6-1 6-2 0-6-2-6-4 0-1 3-4 5-4l2 2zm-65 4c2 2 1 5-2 5-2 0-3-1-3-2 0-2 2-5 3-5l2 2zm-259 8c4 14 4 25-2 29-3 2-3 2-7 1l-5-4c-2-3-2-3-1-6 2-3 2-4 5-4l4 1c2 2 1 6-1 7v1c6 0 8-11 4-23-2-8-3-9-1-9l4 7zm519-5l-2 9c-3 7-3 16 0 19l4 2c2 0 2 0 0-1-3-1-3-6 1-8 5-2 10 5 7 10-5 6-12 6-16 0-2-5-1-19 2-27 2-6 5-8 4-4zm-352 9l-8 5c-8 4-15 4-32 1l-17-1c-5 0-6-2-2-4 2-1 5 0 16 2 10 2 15 2 22 2 10-1 14-2 19-7l4-1-2 3zm183 0c8 5 23 7 41 3 11-3 14-3 17-1 2 2 1 3-3 2l-16 2-19 2c-7 0-9 0-15-3l-8-6c-3-3-1-3 3 1zm-58 16c4 4 4 9 0 14-3 2-5 3-8 3-5 0-7-3-5-6s4-3 6 0c0 2 0 2 3 0 4-4 1-11-6-11l-6 3-1 1 3-1c2 1 1 1-1 3l-2 4c0 2-2 1-2-1s0-2-1 0-3 4-3 2h-4c-2-1-1-7 1-9 2-3 4-3 4 0l2-1c4-3 6-4 12-4 4 0 6 0 8 3zm-29 5c0 5-2 8-4 6-1-1-2-8 0-10 3-2 4-1 4 4zm-220 9c7 7-4 18-12 13l-2-3c0-2 4-6 6-6 3 0 2 1 0 4-3 2-1 4 3 2 3-2 4-3 3-6-1-2-2-2-7-2l-8 1-2 1c0-3 9-7 14-6l5 2zm443 0l5 4-5-2-8-1c-4 1-5 1-5 4s0 4 2 5c5 2 8 1 4-2-2-2-1-4 1-4l4 3c2 4 0 6-5 7-5 0-10-4-10-8 0-7 8-11 17-6zm-243 0c3-2 5-1 5 1h1c2-3 6-2 7 1v9h-3l-1-1c2 2 1 3-4 3-4 0-5-1-7-3-3-3-5-7-3-10 1-2 1-2 2-1 1 2 2 2 3 1zm33 0c3 6-4 16-8 12v-1l1-2-2 1c-3 3-5 4-5 2h-1c-2 2-3 0-3-5 0-6 1-8 4-8 2 0 3 2 2 5 0 1 1 1 1-1 2-4 5-5 7-3 1 2 1 2 1 0 1-2 2-3 3 0zm-70 12v4c-3 3-8-1-5-5 2-1 4-1 5 1zm107 2c0 3-3 4-5 1-1-2-1-3 1-4 2-2 4-1 4 3zm-48 2l4 1c4 0 8 2 8 5l-19 1-21-1c-1-2 4-5 8-5l4-1c1-2 3-2 8-2s7 0 8 2zm122 10c5 4 9 4-130 4l-132-1 2-3c1-2 4-2 130-2l130 2zm-246 8c-1 3-4 4-4 1 0-2 1-3 3-3l1 2zm17 0l-1 2h-3l-1-3c1-1 4-1 5 1zm17-1l-1 3h-3v-3h4zm16 0l-1 3h-3l-1-3h5zm18 1c0 3-2 4-4 2s-1-4 2-4l2 2zm17 0l-1 2c-1 2-5-1-4-3 1-1 4-1 5 1zm33 0l-1 3c-2 1-3-2-3-3 1-3 4-2 4 0zm17 1c0 3-2 4-4 2v-3c1-2 4-1 4 1zm17-1c0 2-3 4-4 2-2-1 0-4 2-4l2 2zm17 0c0 3-2 4-4 2s-1-4 2-4l2 2zm18 0c0 3-2 4-4 2s-1-4 2-4l2 2zm16 0c0 3-2 4-4 2s-1-4 2-4l2 2zm17-1c1 3-2 5-3 3-2-1-1-4 1-4l2 1zm17 1c0 2-3 4-4 2-2-1 0-4 2-4l2 2zm-135 0c0 2-2 4-3 3-2-1-1-4 1-4l2 1zm159 9c5 6 5-16 5 282l-1 276-4 6-3 4H207l-3-4-3-4V491l1-278 3-5 4-3h283l3 2zm105 23c1 2-1 4-3 4-3-1-4-4-2-6 2-1 5 0 5 2zm-494 1c-1 3-5 4-6 2-1-3 1-5 3-5 3 0 3 0 3 3zm91 2l-1 2c-3 0-4-3-2-4s3-1 3 2zm310 0c0 1 0 2-2 2s-3-2-2-4c2-2 3-1 4 2zm10 256v252l-3 4-3 3V232l3 2 2 3 1 252zm-327 1l-1 258-3-3-2-3V238l2-3 3-3 1 258zm317-241c0 3-2 5-4 3v-3c2-2 3-2 4 0zm-309 0c0 3-2 4-4 3-2-2-1-4 1-4l3 1zm-21 12c4 5 2 12-4 16l-4 3 3 2c4 4 6 9 5 15s-3 8-8 8c-6 0-9-3-8-6s1-3 4-2c3 0 6-2 7-6 1-5-5-9-12-6-1 0-1 1 2 2 4 1 4 5 0 5-6 0-8 3-8 14 0 9 1 11 3 17l3 8-5-2c-5-2-8-10-9-22-1-13 3-20 16-30 9-7 11-10 11-15s2-5 4-2zm350-2v3c0 4 3 8 11 15 8 6 13 13 15 19 2 7 1 21-2 27l-1 3 3-2 2-1 5 2 1 3c0 2 0 2-3 2-2 0-3 0-3-2h-1c-1 2 0 3 4 3l4 1h7l-2 4-3 2c-1 2-2 2-4 2l-4-1 3 3c2 2 4 7 3 8l-4-2c-1-2-4-3-6-4-5 0-12 2-15 5-3 4-7 14-7 18 0 3 0 3 1 1 1-7 1-8 5-10h6c2 1 2 1-2 8l-3 4-1-3-1 8c-1 12-1 16 3 23 4 8 10 13 16 15 3 1 3 1 4-1 0-2 1-2 2-1 6 2 16 0 30-6 10-5 13-5 15 0 2 3 1 5-7 13-7 8-7 9-8 19 0 8-1 8-3 9-4 0-7-1-9-5s-1-8 4-12c2-3 3-4 2-5-1-3 1-6 6-10l4-3-3 1-5 3-3 2c-2 2-2 2-6 1-3-2-3-2-7 0-5 2-9 2-11-1l-2-1c-1 2-7 1-13-1-7-2-15-10-18-16s-5-15-5-24c0-11 1-16 7-26 4-9 7-21 7-28 0-5 3-2 5 4v4l3-5c6-13 5-32-3-32l-4-1v-3l4-2v-1c-4-2-10 0-11 4-1 5 1 8 6 8 3 0 4 0 4 2 0 4-3 6-8 6-6-1-8-4-8-12 0-6 2-10 6-12l3-1-3-2c-7-5-10-11-6-17 2-3 4-4 4-2zm-329 8c0 2-3 3-4 1v-3h3c1 1 2 2 1 3zm308-2c2 1 1 4-1 4s-3-2-3-3c1-2 2-2 4-1zm-392 7c0 2-1 4-3 5-3 0-5-4-3-6s5-1 6 1zm478-1c3 4-2 8-5 5-2-2-1-6 2-6l3 1zm-85 12l-1 3c-2 2-5-1-3-3 1-2 4-1 4 0zm-309 1c0 2-4 3-4 1-1-2 0-3 2-3l2 2zm-57 4c0 1 0 2-2 2-3 0-4-2-2-4s3-1 4 2zm423-2l-1 4h-3c-1-2 0-5 2-5l2 2zm-57 14c0 3-2 5-4 3v-4c2-1 3-1 4 1zm-309 0c0 3-2 4-4 3-2-2-1-4 1-4l3 1zm-59 8l-1 3c-3 2-7-2-5-5 2-2 5-1 6 2zm429-1c0 3-3 5-5 4s-3-5-1-5c3-1 5-1 6 1zm-392 4c3 3 0 7-4 5-2-1-2-3-1-4 2-2 3-2 5-1zm353 0c2 3 0 6-3 6s-4-4-1-6h4zm-417 9c-2 5-3 10 0 14 1 2 1 2 3 0 5-4 8-3 8 2 0 2-1 3-3 5l-3 2 2 1 7-1c9-2 11-3 12-2v2c-3 1-8 5-9 7-2 2-3 5-3 9 0 6 0 6 4 10 4 5 5 5 3 7s-7 1-10-2-3-3-2 0c1 7 13 10 19 4 2-1 3-3 3-5 0-3 2-3 4 1 2 3 3 2 3-3s-3-9-7-9c-2 0-3 1-3 3-1 3-4 4-5 2-2-2 0-6 3-7 3-2 9-3 11-1 4 2 5 13 3 19-3 7-12 12-20 12-4 0-12-4-15-8-2-3-3-5-3-11s-1-7-3-10c-5-5-15-3-15 3v2l3-3c4-3 5-4 8-2s3 6 0 8l-5 2c-3 0-3 0-3 4 0 6 2 9 8 11 5 2 6 5 1 4-8-2-13-8-13-15l-1-7c-3-5-1-11 5-14 4-1 11-1 15 2 2 1 2 1 4-3l2-3-3-3-3-3-4-6c-4-6-5-10-3-15 2-2 6-7 8-7l-3 4zm85-2c0 2-3 2-4 0 0-2 0-2 2-2l2 2zm310 0l-2 2c-2 0-3-2-3-3 2-2 5-1 5 1zm86 6c2 5 0 11-3 14l-4 6-4 4-2 1 2 4 2 4 5-2c11-5 22 2 18 11l-2 8c0 5-3 10-6 13-2 2-8 3-9 2l3-3c6-2 8-5 9-10v-5h-3c-4 0-8-3-8-6 0-2 3-5 5-5l5 3c3 3 3 3 3 1 0-4-3-6-7-6-3 0-5 1-8 3-3 4-3 4-3 9 3 18-22 27-35 13-5-6-5-17-1-23 4-5 16-1 16 5-1 4-5 4-6 0 0-2-1-3-3-3s-3 1-5 3c-3 6-2 14 1 9 2-4 4-4 4-1l2 4c3 4 10 5 15 3 3-1 6-5 6-9l-1 1c-2 3-6 6-9 5-4-1-4-4 0-8 4-3 4-4 4-8 0-8-3-14-9-16l-4-3c0-2 4-2 9 0 6 2 11 3 12 1l-2-2c-3-2-4-6-2-8 1-2 6-1 7 1 2 3 2 3 4-2 2-4 2-7-1-11s-2-5 1-3c2 1 3 4 4 6zm-428-2l2 10 6 16c4 9 7 19 7 26 0 6-3 19-6 24-3 6-10 14-16 16-2 2-6 2-10 2l-7 2c-3 2-8 1-12-1-3-1-3-1-6 1-2 1-3 1-6-1-12-8-12-7-6-2s7 8 5 9c-1 1 1 3 3 6 5 5 5 8 1 13-2 2-3 3-6 3-4 0-4-1-4-10 0-8-1-11-9-19-4-5-6-8-6-10 0-6 5-7 15-2 12 6 23 8 31 6 1 0 2 0 2 2s1 2 6-1c10-5 16-16 17-26v-12c0-6 0-7-1-6-1 2-2 2-5-3l-3-6c1-2 8-1 10 1 2 1 2 1 1-1-4-13-19-20-27-11-2 3-3 2-3-1 1-3 3-5 6-7 2-1 3-2 1-2-5 3-11 2-9-1l-1-1-4-3 3-1h4l4-1 4-1h-3c-4 0-4 0-3-3l1-3v-1l-1-1 1-1 2 1 1 1 2 2c1 3 1 3 1 1l1-2c1 0 3 3 3 8 1 4 1 5-1 5-1 1 0 1 2 1 3 0 3 0 2-2v-6l6 3c1 1 1-1 1-4 0-9 3-14 4-7zm-32 1l-1 3v1h1c1-1 5-2 6 0 0 1-3 4-6 4-2 0-3-1-5-3v-7l3-1c2 0 2 0 2 3zm6-1c0 2-2 3-4 3l-1-3c0-2 0-2 2-2s3 0 3 2zm434 0c1 2-1 7-3 9h-5c-2-1-3-2-3-4 0-1 0-2 2-1l3 1h1l-2-2c-3 0-5-2-5-3 1-3 12-3 12 0zm-13 0l-1 1-1-1 1-1 1 1zm-382 8c0 2-1 4-3 5-3 0-5-4-3-6s5-1 6 1zm350 0v4c-3 3-8-1-5-5 2-1 4-1 5 1zm-330 6l-2 2c-2 0-4-3-2-4s4 0 4 2zm309 0c0 1 0 2-2 2-3 0-4-2-2-4s3-1 4 2zm-354 13c1 2 1 3-1 4-2 2-2 2-3 1-2-2-3-4-1-6s4-1 5 1zm399-1c3 3-1 8-4 6l-1-3c0-2 2-4 3-4l2 1zm-354 4l-1 3h-3l-1-3h5zm309 1c0 2-2 3-4 2-1-2 0-4 2-4l2 2zm-309 15l-1 3h-3l-1-3h5zm309 1c0 3-2 3-4 2-2-2-1-4 2-4l2 2zm-346 14l-5 5c-2-1-2-4-2-6 1-2 6-1 7 1zm385 0c1 2 0 5-1 5-3 0-5-2-5-5 0-2 0-2 2-2l4 2zm-348 4c0 3-2 3-4 2-2-2-1-4 2-4l2 2zm309 0c0 2-3 4-4 2-2-1 0-4 2-4l2 2zm-356 6c4 1 0 7-4 7-3-1-4-3-1-6 3-2 3-2 5-1zm403 1c3 3 2 6-1 6s-6-3-6-5l3-3 4 2zm-459 2c3 3 2 5-2 5-2 0-3 0-4-2v-4c2-2 4-1 6 1zm516-1c2 1-1 6-4 7-4 0-5-3-2-6 3-2 4-2 6-1zm-486 3c2 2-1 4-4 3s-4-3-2-4c1-2 5-1 6 1zm457 0c0 3-4 5-6 3-3-2-1-5 3-5 2 0 3 0 3 2zm-445 1c3 0 2 5 0 5-3 1-6-1-6-3 0-3 3-4 6-2zm432 1c1 2 1 2-2 4-2 1-5 1-6-2s6-6 8-2zm-372 4c0 3-2 3-4 2v-3c1-1 4 0 4 1zm311 0c0 2-3 4-4 2-2-1 0-4 2-4l2 2zm-329 0c2 4-2 7-5 5-1-1-2-4 0-5 1-2 5-1 5 0zm348 2c0 2-3 5-5 3-1-1-2-4 0-5 1-2 4-1 5 2zm-352 8c2 2 3 4 3 7 0 4-2 8-4 8l-3-3c-1-3-2-4-5-3-5 0-8 2-10 7-1 4-1 5 1 2 1-1 5-2 5 0l-2 3c-1 2-2 4-2 12 0 11 1 12 8 25l-1 1c-2 0-11-15-13-22-2-8-3-18-1-24 3-6 7-12 12-14 6-3 9-3 12 1zm361-1c9 4 14 13 14 25 0 9-2 17-9 28-5 8-8 9-4 1 6-12 7-24 3-32-3-4-2-5 2-3 3 1 3 1 2-1-1-4-7-9-10-9s-5 2-5 4c0 3-3 4-5 1-3-4-2-12 3-15 2-1 5-1 9 1zm-444 5l2 3 2 5 2 7c0 4-3 10-4 10l3 1c6 1 9 3 11 8v6l-3 3-2-5-4-4c-3-2-9-1-12 0v1c2 0 9 2 9 4l-3 2c-8 3-5 16 4 16 3 0 3 0 1-2-2-3-1-5 3-5 8 0 14-6 16-15 1-6 2-7 4-4 2 1 2 3 2 9-1 7-1 9-4 14-7 12-14 15-27 11-10-3-16-11-16-23 0-7 3-12 11-17 6-4 7-6 7-10 0-2 0-2-2-1-3 1-7 1-8-1-2-2 1-6 5-7l3-1-2-3-3-5 5 3zm521-1l-2 3c-2 1-3 4-1 4 4-1 8 3 6 7 0 2-6 3-8 0-2-1-2-1-2 2 0 4 1 6 8 10 10 7 13 15 10 25-5 13-19 20-31 16-8-2-16-16-16-25 0-7 1-10 2-9l1-2v-3c1 0 3 4 3 9 2 8 9 14 16 14 3 0 4 0 4 2l-2 3c-1 2-1 2 2 2 4 0 9-5 9-9s-3-7-6-7l-2-1c0-2 4-4 7-4 3-1 3-1 1-2l-6-1c-5 0-9 3-9 7 0 3-2 4-4 1-4-7 3-15 12-15h2l-2-3c-3-4-4-9-2-12l3-6c1-4 5-8 7-8v2zm-484 3c1 1 1 2-2 2-2 1-5-3-3-4 1-1 4 0 5 2zm447 1c-1 1-2 2-4 1-3 0-3-2 0-3 2-2 3-2 4-1 2 1 2 1 0 3zm-453 0c1 1 0 2-1 2-3 1-3 1-2-1 0-2 3-3 3-1zm74 1c0 2-2 3-3 2-2-1 0-4 1-3l2 1zm311 0c0 2-3 4-4 2-2-1 0-4 2-4l2 2zm73 0l-1 2c-2 0-3-2-3-3 2-2 4-1 4 1zm-443 2c1 2 1 3-1 4l-2 1c-1 0-3-6-2-7 1-2 4-1 5 2zm430-2l-1 4c-1 3-5 3-5 0 0-4 4-7 6-4zm-436 3c1 5-3 7-5 2v-3c2-2 4-1 5 1zm441-1c1 1 0 6-2 6-3 0-3-2-2-5 0-2 1-3 4-1zm-448 3c1 2 1 3-1 3s-7-3-7-5h4c2 0 4 0 4 2zm43 0c0 2-3 4-4 2-2-1 0-4 2-4l2 2zm369 0l-1 2c-1 2-5-1-4-3s4-1 5 1zm46-1c-1 2-6 4-7 4-1-1-2-2-1-3 0-2 1-2 4-2l4 1zm-444 5c1 2 0 3-2 3s-3-2-2-4c2-2 4-1 4 1zm42 1l-2 6c-3 8-4 13-1 20 5 12 2 25-5 26-5 0-10-6-7-10 2-2 4-1 6 1 2 1 2 1 2-3l-6-12c-6-9-7-14-4-19 2-3 6-6 9-6 4-1 5-2 5-4 0-3 2-2 3 1zm341-2l4 7 6 9c0 2 1 2 1 1l-1-4-4-5c-3-4-3-5 2-3 4 3 8 8 8 12 0 3-1 6-7 15-3 4-4 7-4 10s0 3 2 2c5-3 8 4 3 8-4 4-9 2-11-3s-1-13 1-20c3-7 2-14-1-21-1-3-2-6-1-7 0-2 2-3 2-1zm43 0c2 1 0 4-2 4l-2-2c0-3 1-4 4-2zm-438 3l-2 2h-1l-1-2c0-2 0-2 2-2l2 2zm6-2l1 2c0 2 0 2-2 2-3 0-5-2-3-3l4-1zm439 2l-3 2c-2 0-2 0-2-2 0-1 1-2 3-2l2 2zm5 0c-1 2-4 3-4 1s1-3 3-3 2 0 1 2zm-438 2l-1 2c0 2-9 3-9 1l3-2h4l3-1zm426 1v3l-4-3c0-2 3-1 4 0zm-437 2l-2 1-2-1 2-2 2 2zm70 0l-1 2h-3v-3c0-1 3-1 4 1zm309 0c0 3-2 3-4 2-1-2-1-4 2-4l2 2zm64-1l-2 2-3-1c0-1 1-2 3-2l2 2zm5 1l-2 1c-2 0-3-1-1-2 1-2 3-1 3 0zm-439 16c4 7 10 13 17 17 10 6 13 12 10 16-2 2-2 3 0 5l1 5c0 3-5 8-13 13-6 4-10 8-15 16l-5 4c-2 0-4-6-4-10s2-9 6-11c3-2 3-2 1-2-3 0-8-3-15-9l-8-7c-3 0-3-1 1-4l10-7c4-5 7-6 10-7h4l-3-2c-5-3-6-6-6-12 1-5 3-11 5-10l3 5zm434-1c2 5 1 12-2 16l-5 3 3 1 10 7 10 8c4 2 4 3 0 5l-10 7-10 7-3 1 5 4c2 2 3 4 3 8s-2 10-4 10l-5-6c-6-7-11-12-18-16s-10-8-9-12l1-5v-2l-1-5c-1-2 0-4 2-6l9-7c6-4 13-11 17-17 3-5 5-5 7-1zm-373 3c0 1-3 3-4 1v-2c0-1 3-1 4 1zm309 0c0 3-2 3-4 2-1-2-1-4 2-4l2 2zm-309 17c0 2-4 2-5 0 0-2 0-2 2-2l3 2zm309 0c0 2-2 3-4 1-1-1 0-3 2-3l2 2zm-309 17l-2 2c-2 0-3-1-2-3s4-1 4 1zm309 0l-2 2c-1 0-3-1-3-3 2-2 5-1 5 0zm-398 7c4 2 9 7 12 15 2 3 2 5 2 10 0 9-1 11-2 4-1-5-5-18-6-17l2 6 3 12 1 6 1 1-2 1v-1l-1-1-2-6c-2-9-8-15-16-15-4 0-5-2-2-5 1-2 1-2-2-2-4 0-8 3-9 7 0 5 1 8 5 9 2 0 3 1 3 2l-9 4c-1-1-1-1 0 0 3 2 9 2 13 0 3-1 3-2 3-5 0-2 0-3 2-3 3 0 4 8 1 12-1 3-7 5-11 5h-2l2 2c3 4 4 12 2 14l-2 5c-1 3-7 9-8 7l1-2c2 0 5-6 3-6-4 1-9-5-7-8 1-1 5-2 8 0 2 1 2 1 2-2 0-4-3-8-8-10l-7-7c-3-4-3-5-3-11 1-7 3-11 7-16 7-7 18-9 26-5zm502 0c8 4 13 12 13 23 0 6-2 11-8 15-9 6-10 8-10 11s1 4 3 2c1-2 6-1 7 1 2 3-1 7-4 7-4 0-4 1 0 5l2 4c-2 1-6-3-8-7l-3-7c-2-3-1-9 2-12l2-3h-2c-3 0-10-3-11-5-3-5-2-12 1-12 2 0 2 1 2 3 0 4 4 7 9 7l6-1c2-1 2-1-1-2-2 0-4 0-5-2-2-1-2-1 1-3 8-4 5-16-4-16-3 0-3 0-2 2 3 3 2 5-3 5l-8 3c-3 2-7 10-7 14l-1 4c-2 0-1-12 1-17 2-6 2-8-1-2l-2 11c0 8-1 10-2 5-3-13 3-28 13-33 5-3 13-3 20 0zm-435 1c5 4 6 15 2 25-3 5-2 12 1 18 2 3 2 6 2 7-1 3-3 4-3 1 0-2-2-4-4-3-2 0-9-5-11-8-2-5-1-9 5-18l6-11v-4l-3 1h-5c-2-3-1-6 2-8 3-3 5-3 8 0zm356 0c5 4 2 11-3 8-3-2-3-2-2 3l4 9c6 8 7 12 7 15 0 4-3 9-8 11-5 3-6 2-2-1l4-7c2-5 1-6-1-1 0 2-3 6-5 8l-4 7h-2c-1-2-1-2 1-8 3-8 4-14 1-21-2-6-3-15-1-20s7-6 11-3zm-334 9c0 1 0 2-2 2-3 0-4-2-2-3 1-2 4-1 4 1zm309-1c1 2 0 3-2 3s-3-1-2-3h4zm-341 2c-8 14-7 14-7 25l1 12 2 3c0 2-4 1-5-1-2-1-2-1-1 3 2 5 5 7 10 7 3 1 4 0 5-3l3-3c2 0 4 3 4 7 0 12-11 14-20 4-6-5-8-11-8-20 0-10 4-22 12-32 2-3 5-4 4-2zm375 6c9 14 12 30 7 41-8 17-26 18-26 3l2-6c2-2 5-1 5 2 0 2 3 4 7 3 3 0 7-4 8-8 1-2 1-2-2-1-4 2-5 1-2-4 2-3 3-5 3-12s-1-8-5-16l-3-9 6 7zm-343 10a2 2 0 0 1-5 0c0-2 1-2 3-2s2 0 2 2zm309-1c1 1 0 3-2 3s-3-2-2-3h4zm-387 13c4 5 4 9 0 14-3 3-4 4-3 6l-3 6-3 4 3-1 4-3h5c2 2 4 2 5 1 4-2 10-3 12-1l8 1c11 1 22 8 27 20 3 5 5 16 5 22 0 8-3 17-7 26-4 8-6 14-7 25l-2 5c-2 0-3-4-3-10v-5l-3 2-4 2v-6c1-2 1-2-2-2-2 0-3 0-2 1 2 0 2 1 1 5 0 5-2 8-3 8l-1-2c0-2 0-2-1 1l-2 2-1 1-1 1-2-1 1-1v-1l-1-3c-1-3-1-3 3-3h3l-4-1-4-1h-6c-1-1-1-2 3-5 3-3 4-3 7-3l3 1-3-3c-3-2-5-7-4-8l4 2c8 7 20 3 25-8 3-5 3-6 0-4-2 2-6 3-9 2l-2-1 4-5c2-5 4-6 5-5s1-1 1-6c1-18-4-30-17-37-6-3-6-3-6-1s-1 2-2 2h-15l-15 6c-11 4-13 4-16 0-1-3 0-5 7-12 7-8 8-11 8-20 0-10 3-13 10-7zm470 7c1 8 3 14 5 15 2 2 11 13 11 15l-2 4c-3 3-4 2-18-4-10-4-11-5-19-5l-9-1c-1-2 1-5 4-6 2-1 6 0 10 2 2 1 2 1 5-1h5l12 7-3-3c-5-3-7-6-7-10 1-1 0-3-2-4-3-4-5-8-4-11 0-4 5-7 8-7h4v9zm-392-2c0 2-3 4-4 2-2-1 0-4 2-4l2 2zm309 1c0 1 0 2-2 2s-3-2-2-4c2-2 3-1 4 2zm-369 0v3l-2-2h-2l-2 1c-3 0-4-2-2-3s7 0 8 1zm433 0c0 1 0 2-2 2s-3-1-3-2h-1c0 2-3 3-4 2l2-2c3-3 7-2 8 0zm-443 0l-2 2-2-2 2-1 2 1zm448 1l-2 1c-2-1-2-3 0-3l2 2zm-449 4l-2 2c-2 0-2 0-1-2 1-3 3-2 3 0zm7-2c0 2-1 4-3 4s-3-1-2-3l5-1zm437 0l1 2c0 2 0 2-2 2s-3-1-3-2l2-2h2zm6 2c1 2 1 2-1 2l-3-2c0-3 3-3 4 0zm-437 0l-1 3c-1 2-5 0-4-3h5zm426 1c0 1-1 3-4 3l-1-4c1-2 4-1 5 1zm-440 3c0 3-1 4-5 4s-5-1-2-3 7-3 7-1zm6 1c0 4-1 5-4 4-2 0-2-1 0-4s4-3 4 0zm36 0c0 2-3 4-4 2-2-1 0-4 2-4l2 2zm369 0c0 2-3 4-4 2v-3c2-1 3-1 4 1zm36 1c1 2 0 4-3 4l-2-6c0-2 4-1 5 2zm8-1c3 2 3 3-2 3-3 0-4 0-4-2-1-3 2-4 6-1zm-444 0c2 1 1 6-1 7-3 0-4-1-3-5 1-3 2-4 4-2zm430 4c1 2 0 2-2 2s-3 0-3-3c0-2 0-3 2-3 2-1 3 0 3 4zm-370 1c0 2-3 4-4 2v-3c2-1 3-1 4 1zm311 0c0 2-3 4-4 2-2-1 0-4 2-4l2 2zm-386 0c2 0 1 3-1 3h-1l-1-2c0-2 1-2 3-1zm459 1c0 2-2 3-3 1-1-1 0-3 2-3l1 2zm-451 1l-2 2c-1 2-2 2-3 1-3-2-1-5 2-4l3 1zm446 0c2 2 2 2 0 3-1 1-2 0-4-1-3-2-3-3 2-4l2 2zm-19 6l-4 2c-9 4-18 15-19 25 0 7 1 19 2 18 1 0 5 5 7 10 2 2-4 3-7 2-4-2-4-3-5-10-1-2-1-2-1 1 0 11 10 23 19 23 3 0 8-2 10-4 2-3 3-2 3 0 0 3-3 6-6 8l-1 1h9v2c-1 1-1 1 1 1h3l1 2c0 2 0 2-3 2h-4l-4 1c-4 0-5 1-4 3s1 2 1 0 1-2 3-2c3 0 3 0 3 3l-1 3c-6 3-10 0-11-9-1-3-1-4 1-4 2-1 1-1-1-1-4 0-4 0-3 2v6l-4-2-2-1 4 3c7 3 9 9 10 21 1 16-2 21-20 36-6 5-6 6-7 10l-1 5c-2 0-5-6-5-9 0-4 4-9 8-11 3-2 3-2 1-3-3 0-7-6-7-10-2-7 3-15 9-15 3 0 7 4 7 7 0 2-1 2-4 2-5 0-7 3-6 8 1 4 7 6 11 4v-1c-2 0-5-4-5-5l4-1 4-2c2-1 4-7 4-11l-5-20-1-3-2 4c-2 5-4 6-4 3 0-6-4-21-7-27-5-9-7-17-7-26 0-19 8-34 21-41 6-2 14-3 15 0zm-377 7c0 2-2 5-4 5s-3-2-3-5c1-2 6-1 7 0zm347 0v3c-2 3-5 2-6-1 0-3 0-3 2-3l4 1zm-330 3c0 3-2 3-4 2v-3c2-2 4-1 4 1zm311 0c0 2-3 4-4 2-2-1 0-4 2-4l2 2zm-371 1c2 0 3 5 1 6h-4c-3-1-4-4-1-6h4zm431 1c2 1 2 2 1 3-2 2-6 2-7 0v-3c2-3 4-2 6 0zm-471 2c1 3-3 8-7 6-2 0-2-3 0-6h7zm28 0c2 3 0 5-4 5-3-1-4-2-1-4 2-2 3-2 5-1zm455 0l2 3c0 1-1 2-3 2-4 0-6-2-4-5h5zm30 1c2 3 2 5 0 5-3 2-8-4-6-6 1-2 5-1 6 1zm-459 2c4 3 1 7-3 5-2-1-4-5-3-6 1-2 4-1 6 1zm405 0c0 1-4 6-6 6-3-1-3-4-2-6 3-2 7-3 8 0zm-468 7c-7 14-6 27 0 48 3 10 3 10 4 7l3-7c3-2 5-3 7-1v2l-3 1c-4 0-4 10-1 17 3 6 6 9 15 15l6 5 2-4 3-4c2 0 2 1 3 7l2 11c1 5 8 17 9 17l5-3c3-4 7-4 10 0l2 6c0 3-1 3-3 4-2 0-3-1-3-2-1-1-1-1 1-1 3 1 4-1 1-3-2-3-5-2-6 2-2 4 1 8 8 11l5 3v-5c0-4 1-7 3-7l3 7c3 9 4 11 11 19l11 14a495 495 0 0 0 27 34c-1-1 2-3 3-3 2 2 1 5-1 5s-2 1 3 6c7 10 27 29 34 34 6 4 20 10 27 11h5l-7-3c-6-3-8-5-13-13l-2-4h6l7 2c4 1-3-6-8-8-5-3-17-3-21-1-3 2-3 2-3-1 1-6 6-10 13-10 5 0 13 4 18 9l4 5-1-6c0-7 1-8 7-2 6 5 8 9 9 18 1 10 3 12 3 4 1-9 4-15 8-19 6-5 14-5 15-1 0 3-2 5-4 5l-1-2c1-3-1-3-5-1s-5 3-6 6c-2 5-3 8-1 6l3-1c2 0 3 4 0 4l-1 9c0 7 0 7 3 10s3 3 10 3c5-1 8-1 11-3l3-2-3-1-4-2c-1-1 4-2 25-2l23-1-6-3c-2-2-3-3-4-1h-3c-1-2-2-3-2-7s0-4 3-3h2c0-2 2 0 3 2s1 2 1 0 2-3 2-1l3 4c2 2 2 2 1 3l-4-1 1 1c4 4 9 4 12 1 3-2 3-6 0-9l-2-2-2 2c-1 4-2 4-4 1-3-4-1-7 4-7s8 1 10 5c3 6 0 12-5 15l-6 3-4 2c-2 0-2 0-1 2 4 4 18 6 22 2 4-3 5-16 1-20-2-2 0-4 3-4 5 2 1-8-5-11-5-3-6-2-6 1v2c-3 0-4-3-4-5 1-3 2-3 5-3 9 0 16 9 17 23 1 8 1 8 2 4l1-10 3-9c2-4 10-11 12-11l1 6v6l3-5c7-8 19-11 26-7l3 3 1 1 1 2h-1v2c3 3 2 3-2 2l-10-2c-8 0-14 2-18 7-4 3-3 3 1 2 3-1 10-2 11-1s-7 12-10 14l-7 4-4 2 5-1c7 0 19-5 26-10 9-6 25-22 33-32 5-7 6-8 4-8l-2-2c0-3 3-4 4-2 2 2 2 1 9-7a498 498 0 0 0 30-41c6-6 7-8 10-15 3-12 6-12 6-1v4l6-3c5-3 7-4 7-6 2-4 0-8-2-9-3 0-5 2-5 4 0 1 1 2 2 1l2 1c-1 2-5 2-6 1-2-3-1-7 2-10s6-3 10 1l4 3c1 0 8-11 10-17l2-11c0-5 1-7 2-7s5 5 5 7 5-1 13-10c7-6 8-7 10-12 2-8 1-14-4-14-3-1-3-1-2-3 2-2 6-1 8 2l2 6v3l2-2 4-12c2-7 2-10 2-22 1-12 0-14-2-18l-1-6c1-1 4 2 6 6 5 10 4 29-2 46-6 18-14 31-27 45-7 7-8 7-5 6l6-3c3-4 8-7 10-7l8-6c4-4 6-6 6-8 0-3 2-6 3-5 2 1 1 7-1 10l-5 5-4 2 2 1c6 3 8 7 4 9-3 1-9 0-9-3-1-2-2-2-3-1-4 1-8 5-5 5 4 0 13 3 16 7 9 8 11 17 7 34-3 10-3 13-3 21 1 6 1 10 3 13l1 3c-1 2-5 1-9-1s-4-3-4 0 2 6 7 10c4 4 5 7 3 10-1 3-2 2-2-1s-1-4-10-11c-2-2-3-3-3-6l2-7v-16l1-4-4 2c-9 5-25 0-29-10-5-11 0-20 10-20 3 0 5 1 7 3 6 6 3 15-4 12-3-1-3-5 1-6 5 0 3-5-3-5-4 0-7 3-7 8 0 7 7 12 16 11s14-7 15-16v-8c-1-1-1-1-3 1-1 3-6 6-9 6-2 0-1-1 1-4 3-2 3-8 0-11l-6-4c-3-1-14-2-16 0v1c1 0 6 4 6 6l-5 1c-4-1-5 0-8 2-5 4-8 9-8 13s0 4 4 4c3-1 3-1 3 1 0 3-3 4-10 4s-8 1-10 9l-2 5 3-2c5-5 13-7 19-5 3 2 3 4 0 4s-8 2-11 4c-2 1 0 1 9 1s11 1 15 3c7 4 9 11 4 16-3 3-9 2-9-2 0-3 3-4 5-2 1 2 1 2 1 0 1-1-2-5-6-5-3-1-10 0-13 2-2 1-2 1-1 4l5 5c4 2 5 4 5 9 0 6-3 11-11 19-6 6-6 7-6 12l3 9 2 5-4-1-4-3c1-1 0-1-1-1-2 0-2 0-1-1 2-2 1-3-1-2-3 0-4-2-2-3l2-2h-1c-4 0-4-2 0-5 3-2 4-2 1-1-4 0-4-1 1-6l4-3-5 2c-8 4-9 7-9 17v8c-2 0-3-7-3-13 0-7 2-11 11-19l10-10 2-4-4-4-4-5-9 7c-10 7-13 11-13 16 0 4 1 4 7 1 5-3 5-2 1 2l-6 3c-4 0-8-3-8-6 0-2-1-1-4 1l-6 3-6 3c-5 3-3 4 2 1l5-2c2 0 6 5 9 10 3 6 10 14 13 15l15 3c14 1 19 3 22 12l2 3v-5c1-5 2-5 12-10 8-4 12-7 16-14 5-8 5-14 1-22-2-5-3-6-8-8-6-4-9-4-14-1-2 2-3 3-3 5 0 4 2 8 5 8l-1-2-2-3c0-6 8-7 13-3 6 4 7 7 7 13 0 7-2 13-8 19-7 7-23 15-23 11l4-3c7-3 18-11 21-15 4-5 5-12 3-18-2-3-2-3-3-1-2 5-10 8-15 5-2-1-5-6-5-10 0-3 7-10 11-11 9-1 21 9 25 19 2 8 1 13-2 20-3 8-3 10 1 7 3-2 7-1 11 3 2 4 3 6 0 9-2 3-6 3-8 0s-1-5 1-6 2-1 0-1c-5 0-8 8-4 20l2 9c0 3 0 3-1 2-5-4-8-26-5-31v-3l-8 6-14 11c-5 3-7 4-8 8-2 5-8 12-14 14-13 7-25 10-40 12l-10 1-2 6c-2 6-3 6-7 8-5 3-12 2-16-2l-2-2h3c5 0 5-1 5-8-1-5-1-6-4-8-2-2-4-3-7-3-4 0-4 0-3-2l10-2 10-1 1 1-1 1h1l2 1v2c2 0 3 6 3 11 0 3-1 2-2-1l-3-4v2c2 3 3 7 1 7v3c2 0 5-3 6-7 0-2 1-4 3-5l3-1-3-4c-5-5-6-10-5-20 2-14 0-20-9-28l-4-3-2-1h-4c-6-2-6-1-2 4 3 3 4 4 4 8 0 5-3 9-8 9-3 0-6-3-4-5 1-2 4-3 6-1 1 2 1 2 1 0 1-3-1-7-4-9-6-2-7-2-22 8-10 7-33 18-44 22-6 2-9 2-19 2-11 0-13 0-17-2s-11-9-11-12l-1-1 1 4a45 45 0 0 0 31 30c3 0 4 2 2 3v1l5-6c1-3 5-6 7-4 3 1-1 7-6 8-2 1-2 1-1 2s1 1-1 2l-11 1c-11-1-14-3-15-8 0-5-2-6-2-3 0 2 1 5 3 7 2 4 3 5 3 11l-2 8c-4 4-5 3-5-6 0-7 0-9-6-23l-7-22v-5h-5c-2 0-4 0-3 1 2 0 1 8 0 11l-3 1c-3-1-5-9-3-12 1-1 0-1-3-1-5 0-5 0-4 2l-9 28c-5 12-5 14-5 21v7c-4 0-7-5-7-11 0-4 1-5 5-11 2-4 3-8 1-8l-1 1v4c-1 5-7 8-18 8-8 0-12-2-10-3 1-1 1-1-1-2-3-1-5-2-6-4v-4c2-2 8 2 8 5l2 4h2c0-2 1-3 6-4 12-5 22-14 26-26l2-7-1 2c0 2-5 8-10 11-4 2-5 2-16 2l-18-1c-9-3-32-14-47-24-10-6-13-7-17-7-5-1-9 3-9 7 0 3 0 3 2 2 3-2 8 1 5 4-2 3-6 2-9-1-5-4-2-13 4-17 3-1 1-2-6-1-5 1-6 1-12 7l-6 7v13c1 16 0 20-5 25l-3 4 3 1c3 2 3 2 4 7 1 3 5 6 6 5l-1-4v-5l1-3-3 4c-1 3-1 3-2 2l1-5 1-6 2-1v-1c-2-1-1-2 1-2 2 1 2 1 1-1v-1l9 1 10 1c3 1 1 3-2 3-4 0-8 3-10 7-1 3-2 11 0 11v-3l3-10 4 4c4 5 3 7-2 9-3 1-3 1-1 1 4 0 4 1-2 4-9 4-18 0-20-9l-1-5-11-1c-18-2-36-8-46-16l-6-8c-3-5-4-6-11-11-20-12-29-27-26-41s16-25 26-22 13 12 7 18c-5 5-12 4-16-2l-2-3-1 2-1 8c0 9 4 14 18 23l9 5c2 2 2 2 0 2s-12-4-16-7l-4-1-1-1-2-4c-10-13-9-26 2-32 4-2 8-2 10 1 3 2 2 3-1 5-2 3-1 4 2 2 4-2 3-10-2-13-4-2-7-1-12 1s-9 7-11 12c-2 6-1 10 1 14 4 9 7 12 17 17 12 7 13 8 13 14 0 5 0 5 1 2 1-5 4-8 10-11 5-3 7-3 13-3 11 0 17-2 20-7l4-5 5-6c5-10 9-12 14-8 4 3 5 2 2-1-2-2-5-3-7-3l-6-3-2-2-2 2c-1 3-4 5-8 5-3 0-8-3-8-6h3l4 2c3 0 3 0 3-3 0-5-2-8-13-15l-9-7-4 4c-5 6-4 7 7 18l12 13c2 4 0 19-3 20v-8c0-9 0-9-2-12l-7-5-5-2 4 3 4 4c1 2 1 2-2 2l-3-1 3 2c4 3 4 5 0 4h-3l3 2c3 3 3 4-1 3-2 0-2 0-1 1 2 2 1 4-1 3l-2 1c1 2-3 4-6 4-2 0-1 0 1-5 6-8 5-12-3-21-13-14-15-25-5-28 2-1 3-2 4-5 1-4 1-4-6-6s-14 1-14 5c0 1 0 2 1 1h5c1 1-3 5-5 5-4 0-6-3-6-8 0-9 8-14 24-13 8 0 8 0 6-1l-6-3c-8-2-8-2-5-4 4-4 14-2 20 4l2 1-5-12-8-1c-6 0-10-2-9-4l4-2c3 0 3 0 3-4 0-7-8-15-16-15l-4-1 5-5v-1h-16c-7 3-10 10-6 15 2 3 2 4-1 4-4-1-8-6-8-8s-1-1-1 1c-1 4 0 11 2 16 6 12 28 10 28-3 0-5-2-8-7-8-3 0-6 2-6 4 0 1 1 2 2 1 2 0 3 0 4 2 1 1 1 2-1 3-3 2-5 2-6 0-3-2-2-7 0-10s4-3 8-4c5 0 5 0 8 3 4 4 5 8 4 13-3 12-21 20-31 14l-3-2 1 5-1 8v6l2 7c0 4-1 6-10 13l-3 5c0 4-2 4-2 1-1-5 0-7 5-11 4-4 5-5 5-8v-4l-3 2c-3 2-10 4-10 2l2-4c2-4 2-24-1-36-2-9-2-11-1-16 2-11 10-20 20-21 6 0 7-3 1-6-2-1-2-1-4 1-2 3-8 5-11 3-2-2-1-5 3-8l4-2-6-5c-5-5-6-8-4-11 1-2 3 0 3 4l2 5 6 5 7 4 8 5c2 3 5 5 7 5 2 1 2 0-5-7-11-11-16-19-22-31-7-14-9-26-9-41 0-12 1-18 5-22 2-3 4-3 3 0zm23 2l-4 3c-5 2-8 5-8 10 0 4 0 4 3 5l5 1c4 3 2 10-3 10l-4-3c-4-3-4-3-4 0s4 5 8 5c3 0 5-1 7-3 3-3 3-3 3-9 0-8 2-12 7-16 7-5 16-5 24 0 6 3 8 9 8 17-1 8-3 11-8 11l-7-2c-3-1-5-6-3-7 1-2 4-1 5 2l3 3c3 1 7-4 7-9s-1-7-3-3c-1 3-4 4-4 1 0-1-1-4-3-5-2-3-4-3-8-3s-6 0-8 3c-2 1-3 4-3 5v2c1-5 9-8 12-5 2 2 1 3-3 7s-4 5-4 9c0 7 4 14 10 16 2 0 3 1 3 2s-6 1-10-1c-6-2-15-1-10 2 4 1 5 4 4 7s-5 3-8 0l-2-2-1 2c-3 3-2 8 1 14l2 4-2-1c-3-1-7-8-7-11s2-8 5-12l3-4 3-3 3-3-2-3c-2-4-2-4-4-3-7 5-18 3-21-4-1-3 0-7 2-9v-4c-1-6 4-13 10-16h6zm87 2c0 1 0 2-2 2s-3-2-2-4c2-2 3-1 4 2zm309-1c0 2-3 4-4 2-2-1 0-4 2-4l2 2zm71 2c6 4 9 10 8 16 0 5 0 5 3 8s5 4 8 4l5-2c2-1 3-7 1-6l-1 3v1h-2l-4 2c-2 0-5-3-5-5 0-3 5-6 8-6s4-3 2-8c-1-4-2-5-7-7-6-2-7-5-2-4 9 2 12 6 13 15l2 10c4 8-8 15-18 10l-5-2-1 4c-2 3-2 3 0 5 1 1 3 3 3 5l4 6c2 1 3 4 4 6s1 4-1 7c-2 4-6 8-7 7l2-4c3-4 3-7 2-11-2-5-3-5-5-2-1 2-7 3-8 0-1-2 1-6 4-7 5-3-3-4-10-2l-7 2c-3 0-3 0-2-2l5-3c4-1 7-7 7-14 0-4 0-6-3-9-4-4-5-6-2-7 3-2 5-1 8 2s4 3 2-2c-2-3-6-5-11-5-4 0-6 0-8 3-2 1-3 4-3 5 0 3-2 2-4-1-3-5-4 3-1 9 2 2 3 3 5 3s3-1 3-3c1-3 4-4 6-2 3 4-4 9-10 9-9 0-12-17-4-25 7-8 18-9 26-3zm-419 0c2 3 1 5-2 5s-4-3-3-5c1-3 4-3 5 0zm387 0c1 2-1 5-4 5-1 0-2-1-2-3 0-3 5-6 6-2zm-39 17c0 2-4 2-5 1l1-3c2-1 5 0 4 2zm-309 0a2 2 0 0 1-5 0c0-2 0-2 2-2s3 0 3 2zm0 16l-2 2c-2 0-4-3-2-4s4 0 4 2zm309 0c0 2-4 2-5 1l1-3c2-1 5 0 4 2zm-354 0c2 4-2 7-5 5-1-1-2-4 0-5 1-2 5-1 5 0zm400 1c1 1 1 1-1 3-1 2-2 2-3 1-2-1-2-4-1-5 1-2 4-1 5 1zm-355 16c0 2-3 3-4 2-2-1 0-4 2-4l2 2zm309-1c1 1 1 2-1 3h-3c-1-2-1-4 1-4l3 1zm-331 3c2 0 2 5 0 6-1 0-4-1-5-3l1-2c2-2 2-2 4-1zm351 0c4 2 1 7-3 5-3-1-3-5 1-6l2 1zm-367 5l-1 3-3 4c-1 3-2 7-2 15 0 12 2 15 8 15 4 0 4 3 0 5-3 1-3 2-2 2 6 3 11 0 11-6 0-4-2-6-6-6-5 2-5-6 1-8 3-2 5-1 8 1 6 5 5 16-2 22-3 3-3 3-1 3l5 5c3 4 4 8 1 13-2 4-4 4-4-1s-2-8-11-15c-12-9-16-17-16-28 0-7 3-18 5-21 1-2 4-4 9-6v3zm-23-1l1 4c-4 0-5 0-5-2h-1v2l1 3c0 3 0 3-3 3-2 0-3-1-3-3l1-3v-1c-1-3 5-5 9-3zm435 3c2 3 2 4 1 5-1 2-6 2-6 1h-1c-1 2-4 1-5-1l3-3c5-1 5-1 4-2h-1l-3 1c-2 1-2 0-2-2s1-3 6-3c2 0 3 1 4 4zm-435 3c3 1 2 4 0 4s-3-1-3-3 1-2 3-1zm423 2l-1 1-1-1 1-1 1 1zm-362 4c0 1 0 2-2 2-3 0-4-2-2-3 1-2 4-1 4 1zm309-1c1 2 0 3-2 3s-3-2-2-3h4zm-330 5l-1 3c-3 2-7-2-5-5 2-2 5-1 6 2zm352-1c2 3-1 6-4 4-2-1-3-4-1-5 1-2 4-1 5 1zm-391 5c2 2 0 5-2 5-3 0-4-3-2-5s3-2 4 0zm430 2c0 2-1 2-3 2-4 0-5-2-3-5 2-2 6 0 6 3zm-370 7c0 1 0 2-2 2-3 0-4-2-2-3 1-2 4-1 4 1zm309-1c1 2 0 3-2 3s-3-2-2-3c0-2 4-1 4 0zm-366 13c0 3-2 4-4 3v-3c1-3 3-2 4 0zm423 2l-2 2c-2 0-3-3-2-5h3l1 3zm-366 3l-2 2c-3 0-4-2-2-3 1-2 4-1 4 1zm309 0c0 1 0 2-2 2s-3-1-3-2c0-2 1-2 2-2l3 2zm-393 10c0 3-2 5-5 3-2-1-2-3 0-4 2-3 4-2 5 1zm477-2c3 2 2 6-2 6-3-1-4-3-2-6h4zm-393 8c1 2-1 4-3 3-2 0-2-3-1-3h4zm309 1c0 2-2 3-4 2s0-4 2-4l2 2zm-309 17c0 1-1 2-3 2s-3-2-1-3c1-2 4-1 4 1zm309-1c1 2 0 3-2 3s-3-2-2-3c0-2 4-1 4 0zm-309 18c0 2-3 3-4 2-2-1 0-4 2-4l2 2zm309 0l-1 2c-1 2-5-1-4-3s4-1 5 1zm-401 1c1 2 0 4-2 4-3 0-5-2-4-4 1-3 5-3 6 0zm494-1c2 3 1 5-2 5s-5-2-4-5h6zm-366 33c1 2-1 4-2 4-3-1-2-5 0-5l2 1zm17 1c0 2-3 4-4 2-2-1 0-4 2-4l2 2zm17 0c0 2-3 4-4 2v-3c2-1 3-1 4 1zm16 1c0 2 0 2-2 2-3 0-4-2-2-4s3-1 4 2zm18 0c0 2 0 2-2 2-3 0-4-2-2-4s3-1 4 2zm17-1c0 2-3 4-4 2-2-1 0-4 2-4l2 2zm17 0c0 2-3 3-4 1s0-3 2-3l2 2zm16 0c1 2-2 4-3 2-1-1-1-4 1-4l2 2zm17 0c0 2-3 3-4 1s0-3 2-3l2 2zm17 0c0 3-2 3-4 2s0-4 2-4l2 2zm17 1l-2 2c-2 0-3-2-2-4 2-1 4 0 4 2zm18 0l-2 2c-2 0-3-2-2-4 2-1 4 0 4 2zm16 1h-4v-3c1-1 4 0 4 3zm17-3c1 2 0 4-2 4s-3-1-2-3c0-2 2-3 4-1zm17 1c0 3-2 3-4 2s0-4 2-4l2 2zm11 6l-2 3c-1 2-7 2-130 2-127 0-128 0-130-2l-2-3 132-1 132 1zm-112 7c0 3-3 5-7 5l-5 1c-1 2-15 2-16 0l-4-1c-4 0-9-3-7-5 0-2 39-1 39 0zm-70 7c1 4-5 7-7 2 0-1 2-4 4-4l3 2zm105-1c2 0 3 5 1 6l-6-3c0-2 2-4 3-4l2 1zm-270 5c6 5 3 13-6 13-4 0-12-3-12-5h4l7 2c4 0 5 0 6-2 2-3 0-7-4-8-4 0-5 0-2 3s3 4 0 4c-2 0-6-4-6-6 0-5 8-6 13-1zm442-1c2 3-1 7-4 8-2 0-3-3 0-4 2 0 1-3-1-3-5 0-8 6-4 9 2 2 7 1 11 0 4-3 6-2 4 0-1 1-4 3-7 3-4 2-6 2-8 1-7-3-8-9-3-14 3-2 4-2 7-2s5 1 5 2zm-237 0l-1 1-2 3c-1 2 0 2 1 0 3-4 6-5 7-4v2l-2 4-1 3 1-3 4-5 2-2 1 2c0 4-1 9-3 11-1 2-1 2-4 0l-2-1c0 2-5 3-5 1h-2c-2 2-2 2-3 0-2-3 0-8 3-11 2-2 6-3 6-1zm20 2c3 2 3 2 2 0-3-3-2-4 2-3 4 2 8 11 5 14-2 1-2 1-3-1 0-2-1-2-1-1l-3 2c-2 0-3-1-3-2l-1-4v1c0 2 0 3-2 5-1 1-2 2-1 3 2 3 2 9 0 10-3 1-6-7-2-11v-3c-1-1-2-3-2-7 0-5 0-5 2-5h2c0-2 2-1 5 2zm-32 8v6c-2 2-5 1-5-1s-3-1-5 1c-4 7 6 13 12 8l3-2-3 1c-2 0-3-1-1-3l3-3 2-1 2-1h5c0-2 2-1 2 0l1 2 1-2c1-2 3-1 4 2 2 4 0 8-3 8-2 0-2 0-2-3v-3l-1 3c-1 3-4 5-5 3l-6 2c-7 4-17 2-19-4-3-6 3-14 10-14l5 1zm-237 7c6 4 6 15 2 28-2 6-3 9-5 8l2-9c2-9 3-19 0-21l-4-2c-2 0-2 0 0 1l2 3c0 3-2 5-5 5-2 0-3-1-5-3v-7c2-2 7-5 10-5l3 2zm385 18l14 2 9 1c3-1 3-1 3 1-1 3-5 3-18 0-16-3-28-3-34 0-3 1-5 2-4 3h-1l-3 1c-1 2-3 2-3 1 0-2 12-9 18-10 5-1 5-1 19 1zm-362 3c3 4 3 5-3 4-5 0-5 0-5 2 0 3 0 3 3 3l6 2c1 2 4 3 5 3 8 3 9 19 1 24-8 4-17 0-17-8 0-3 4-7 7-7 1 0 4 4 4 6-1 2-4 3-6 0-1-1-1-1-1 1 0 5 6 8 11 5 3-1 4-7 3-10s-4-6-4-4-3 1-5-3l-4-4c-3-1-8 0-12 2l-3 1 5-6c2 0 2-1 1-4-1-4-1-5 1-7 3-5 9-5 13 0zm141 1c6 3 9 6 6 6l-5-3-8-4c-7-2-21-1-29 1-13 3-15 3-18 2-4-3-4-4 1-4 3 1 9 0 15-1l21-2c9 1 10 1 17 5zm341-4c4 1 5 5 5 9-1 4-1 4 2 7 4 3 4 5-1 3l-7-2c-4 0-5 0-7 3l-2 4h-3c-2-2-5 2-5 6 0 5 3 9 7 9 5 0 7-2 7-5s0-3-1-2c-2 3-5 2-5-1 0-5 5-7 8-3 2 2 2 3 2 6-1 9-12 12-18 5-7-6-6-18 2-21l5-4 6-2c3 0 3 0 3-3 0-2 0-2-4-2s-5 0-5-2 3-5 6-5l2-1 3 1zm-358 7h11l6 2 4 2 3 1c3 0 5 3 3 4-1 1 1 3 4 4 1 1 1 1 0 0-2-2-3-6-1-7 2 0 7 1 8 3l-2 1h-2l2 1c3 2 3 3-1 3h-2l3 1c3 1 3 2 0 3-4 0-8-2-13-6l-8-5c-3-2-5-2-12-1-5 0-12 2-17 4-9 4-18 5-20 2-3-2-2-4 1-5l3-1c0-1 1-2 4-1l2-1-1-1 6-1h5l-1-1 5-1h10zm221 0h9l5 1h5l5 1c4 0 6 1 3 2-1 1 0 1 3 1h4l2 2c3 1 4 4 1 6-4 2-14 1-20-3-6-3-8-3-19-5-5 0-11 1-16 5l-7 6c-4 2-10 3-10 0l2-1v-1c-3 0-2-2 0-3l3-1h-3c-2 0-3-1-1-2l4-2h4v3c-1 4 0 4 1 2 2-1 2-2 1-2-2-1 1-4 3-4l6-2 6-3h9zm-106 10c0 2-2 5-4 3s-2-3-1-5c2-2 4-1 5 2zm-52 2c3 3 4 8 2 8v1c3 3 0 3-5 0-5-4-7-8-6-10 1-3 6-2 9 1zm107 0c0 3-1 4-8 11h-4l2-2v-1l-1-2c-1-4 4-9 8-9 3 0 3 0 3 3zm-320 0l2 3h11c1 2 1 2-2 3-5 2-7 5-7 10s2 14 4 14l4 2c4 2 4 2 4 0-2-3-2-6-1-7s2 0 6 2l10 3c8 0 21-8 22-14 1-3 0-4-3-1-2 1-6 1-7-1 0-1 7-9 8-8l-1 3-1 2 3-2c3-2 4-2 6-1 5 3 2 14-6 24-9 9-21 12-36 8-9-2-13-3-17-1s-4 2-4 0 6-8 9-8l-1-2c-3-4-4-6-5-14l-2-11-2-5c0-2 4-1 6 1zm200-1c3 2 2 7-2 7-2 0-5-4-5-6s4-3 7-1zm131 1c0 2-3 6-4 6l-3-2c-2-2-2-2 0-4 2-3 7-3 7 0zm199 0l-2 8-2 9c0 3-2 8-5 11v3l5 4c4 4 5 7 2 5-5-2-10-2-17 0l-15 2c-6 0-8 0-12-2-10-5-18-15-20-25-1-4 0-6 3-7h5c3 2 3 2 2 0-2-4 1-2 4 2 5 6 2 8-5 4-2-2-3-2-2 0v2c0 2 8 9 12 11 7 3 17 3 22-1 3-2 3-2 4-1v7c-1 2-1 2 3 0l5-2c1 0 4-8 4-12l-1-5c-1-4-2-4-6-6s-4-2-3-4h9l4-2c3-4 6-4 6-1zm-365 7c9 4 11 7 14 19 0 3 0 3-5-2-5-6-8-6-14-3-4 2-5 1-3-3l2-4-4 1c-3 1-4 2-5 4-2 3-2 4-4 1-3-2-2-4 1-8l4-3h-3c-3 0-3 0-2-2 3-5 10-5 19 0zm212-1c3 2 3 3-1 3-2 0-2 0-1 1 2 2 5 6 5 8l-4 4-1-2c0-2-3-5-8-6h-3l2 2c2 3 3 6 1 6l-3-2-5-1c-4 0-5 1-9 5-3 3-5 5-5 3l2-5c1-5 4-10 8-13 9-6 18-7 22-3zm-112 2c3 3 3 9 0 11s-3 2-5 0c-3-1-3-2-3-6 1-4 3-8 5-8l3 3zm-67 1c2 2 3 4 2 5l1 2c1-1 5 1 5 2l-4 1c-6 0-10-5-5-6 2-1 2-1-1-1l-4-2c-3-3-2-4 1-4 2 0 4 1 5 3zm136-2c0 3-4 5-7 5l-3-1 2-2c3-3 8-4 8-2zm-198 3c0 2-5 9-6 8l-3-3c-1-4 0-7 4-6h2c0-2 3-1 3 1zm256 0h1c1-1 5-1 5 1l-4 7c-2 0-6-6-5-8h3zm-317 4c2 2 2 2 1 6l-2 8-1 3 5-14c0-2 0-2 5-2 6 1 7 2 5 6-1 3-4 4-5 0l-1-3v4c-2 9-8 16-15 18l-2 3-1 1c-2 0-2-2 0-7l2-6c0-2 3-7 6-10 3-4 2-5-1-2-2 1-3 2-4 1l-1-7c0-2 6 0 9 1zm329 6c0 4-1 5-3 5s-7-2-7-4l3-5 4-4 1 2c2 2 2 4 2 6zm55-5l-1 5c0 2-2 1-5-1-3-4-3-2 0 3l5 7 2 8c2 4 3 7 1 7l-2-2-3-2c-5-1-11-8-12-14l-1-6v-1c-1 0-2 1-2 3-1 4-3 3-5-1-1-4-1-5 5-6h5l1 6 3 6-1-4c-2-6-1-8 2-10l6-1c2 0 2 0 2 3zm-130 0l-2 3h-9c0-1 4-3 5-2l2-2c1-2 4-1 4 1zm-141 2l-1 2c-3 1-2 2 2 2l6 1c3 1 3 5 0 5-6 0-8 6-3 10 3 3 5 4 3 1-2-1-2-3-1-6s4-3 5 0c2 4 12 5 19 1 2 0 5-3 7-6l5-5v3c0 3-1 5-6 10-9 10-17 13-28 9l-16-2-11-1c0-3 6-5 10-5s4 0 3-2l-1-8 1-9h6zm154 1c2 3 2 10 1 15l-2 3h6c5 0 8 2 8 5l-10 1-18 2c-12 3-19 0-28-10-4-5-5-8-4-11l5 5c8 8 19 10 25 4l3-2c3 0 4 7 1 9v1l3-2c5-4 3-11-3-11-2 0-3-2 0-4 1-2 8-3 10-1v-1l-2-3c-2-1-1-2 1-2l4 2zm-82 3l2 2 2-2c4-4 10-2 8 4-1 3 1 3 5-1 2-2 2-3 4-1 3 5 0 10-6 10l-4 2-1 1-2 1c0 2-2 3-3 2-1-2 0-4 2-4l2-1-2-3-3-1 1 1 1 2c0 1-6 2-7 0-1-1 1-3 3-2l1-1c0-2-2-1-5 1-2 1-3 3-2 4l-1 1-2-1c1-1 0-2-3-2-5 0-7-1-7-6s2-6 5-3c3 4 5 4 4 0-1-5 5-7 8-3zm-46 2c-3 4-9 6-12 4-3-3 1-6 8-6 4 0 5 0 4 2zm108 0v3c-1 2-7 2-10-2l-3-3h6l7 2zm-176 2c1 1 8 3 14 3 12 2 18 4 18 5l-4 1c-7 0-17 2-23 5-5 3-6 3-7 2-1-2-2-1-8 1l-11 3c-7 0-16-3-20-5l-3-2 3-1 13-4 15-3c6 0 7-1 7-3 0-3 2-4 6-2zm238 2c0 3 0 3 5 3l12 2 14 4c4 0 7 2 7 2l-6 4c-5 2-7 2-14 2-8 0-10 0-15-2s-6-3-6-1-1 1-7-1c-6-4-11-5-20-6l-8-1 3-1 16-4 14-3c4-2 5-1 5 2zm-292 10c1 2-1 5-4 5-2-1-3-4-1-6s4-1 5 1zm168 0c1 2-2 4-3 2-1-1-1-4 1-4l2 2zm178 0c1 1 1 3-1 4-2 2-5 0-5-2 0-4 3-5 6-2zm-380 1c1 2 0 5-2 5l-3-2c-2-2-2-2-1-4 2-2 5-1 6 1zm415 0c1 2-1 4-3 4-3 0-4-2-4-4 1-3 6-3 7 0zm-243 1c2 2 1 5-1 5-2 1-5 0-5-2s2-4 4-4l2 1zm21 1c2 2 0 5-2 5-4 0-5-3-2-5 2-2 3-2 4 0zm28 2c0 2-1 3-5 3-2-1-3-4 0-6 2-1 5 0 5 3zm20-3c2 3 1 5-2 5s-5-2-3-4 3-2 5-1z"/><path d="M215 85h2c1-1 0-1-1-1s-2 0-1 1zm10 2c6 2 20 4 21 3l-15-3c-13-3-14-3-6 0zm251-1l-16 3-10 2 7-1 19-3c11-3 11-4 0-1zm129 1l-5 1c3 1 8 1 11-1l1-1-7 1zm-36 3l-2 2 4-2c5-3 5-3 3-3l-5 3zm-83 11h2c1-1 0-1-1-1s-2 0-1 1zm-288 5l1 2c2 2 2 0 0-2h-1zm178 1c-1 2-2 7-1 8l2-3c1-7 1-7-1-5zm234 7l1 1 1-1-1-1-1 1zm-283 2l1 1 1-1-1-1-1 1zm45 0c-1 1 0 1 1 1l1-1-1-1-1 1zm-204 2c-3 2-4 3-3 4v7l1 5-2-3-3-6c0-3-1-4-2-4l-10 5 11 7 13 7 5 10c9 21 12 25 20 25h5l-3-3a371 371 0 0 0-17-13c0-1 6 2 17 9 5 4 8 5 9 4l2 1v-4l-4-1-8-6c-5-3-6-5-7-8l-3-6v-3c2-1 0-2-3 0s-3 0 0-4l2-3-4 1h-3l3-3 3-4-4 1c-6 2-6 1-1-3l4-3-4 1c-7 3-8 2-4-2 5-3 4-4-2-2-4 2-5 0-1-3 3-2 1-3-3-1-2 2-3 2-3 1l2-3c3-3 1-2-3 0zm362 0c3 4 2 5-2 3-4-3-5-2-2 0 3 4 2 5-3 3s-6-1-1 2c5 4 4 5-3 2-4-2-5-1-1 2l4 3c0 2-1 2-5 0l-4-1 4 4 4 3h-5l-4-1 3 4c3 3 2 5-1 3s-4-1-3 0v3l-2 5-4 7c-4 4-11 8-13 8-3 0-5 5-3 6h1c-1-2-1-2 1-2 2 1 4 0 7-2a156 156 0 0 1 17-11l3-1-2 2-9 8c-10 7-10 7-5 7 8 0 13-6 20-23 3-11 4-12 13-16 11-5 17-9 16-10l-10-5-2 2c0 3-3 10-4 10v-2l1-6v-5l-4-2-4-2 2 2z"/><path d="M134 134c-5 2-6 4-5 8 2 7 8 10 25 11 13 0 14 1 22 12l6 7-6-11-2-4-2-2-2-1 2-2 3-1h-4c-3 0-4-2-2-3 1-1 0-1-2-1l-4-2-3-2c-2 0-3-2-1-2 1-1 0-1-1-1-5 1-11-1-6-2h-4l-6-1 2-2 2-1-6 2c-6 2-7 1-3-3l-3 1zm430 0c3 3 3 3 1 3l-5-2h-4c4 2 2 3-3 3h-4c3 2-1 3-5 3h-3c2 0 1 2-1 2s-3 1-3 2l-4 2c-3 0-3 0-2 1 3 1 1 3-2 3s-3 0-1 1c1 1 2 2 1 3l-3 1-1 1c1 0 0 3-2 5l-4 7-1 3 2-2 7-8c6-9 7-9 22-10 14-1 18-2 21-7 3-6 3-8-4-11l-6-3 4 3zm-266-1h2c1-1 0-1-1-1s-2 0-1 1zm8 0l-4 3c-6 3-10 7-13 13l-2 4 2-3 16-15c4-2 5-3 3-3l-2 1zm88 1c6 4 11 8 15 14l4 5-2-5c-3-5-9-11-14-13l-3-2-2-1c-2 0-2 0 2 2zm7-1h2c1-1 0-1-1-1s-2 0-1 1zm-114 2l-11 5 2-1a178 178 0 0 1 16-6l-7 2zm128 2l10 3-11-5c-10-3-10-2 1 2zm-135 13c-6 3-9 5-10 8-2 3-2 3 8-5 7-5 8-6 2-3zm138 0l8 6c5 3 6 4 5 2-1-3-7-6-11-8l-4-2 2 2zm-169 2v1l3-1 1-2-4 2zm199 0h3l-3-2c-2 0-2 0 0 2zm-105 3h1v-2l-1 2zm-102 1c-1 2-1 2 1 1l2-1c0-2-2-1-3 0zm216 1l3 1v-1l-3-2v2zm-223 5v1l3-2h-3zm53 3l-5 6c-1 2-1 2 1 0l4-3 1-2c1 1 1 0 1-1l1-2v-2l-3 4zm123-4l1 2 1 2v1l2 2 3 3-2-4c-4-7-5-8-5-6zm54 1l2 1v-1l-2-2v2zm-237 5v1l2-1-1-1-2 1zm245 0l1 1 1-1-2-1-1 1zm-259 2l2 2 2 1-2-3h-2zm271 2c-1 2 1 2 2 0v-2l-2 2zm-279 6c0 2 0 2-3 1h-2l-1 1 1 2 4 1c2-1 3-4 1-5-1-1-1-1 0 0zm-18 1l4 1c4 0 4-1-1-1h-4zm310 0l-2 2c1 2 5 2 6 0v-1l-1-1h-3zm13 0l-3 1h3l3-1h-3zm-25 11a566 566 0 0 1 37 48c4 2 10 3 13 1 5-4 1-15-5-14-2 0-3 1-3 3 0 3 0 3 2 1s2-2 3-1c1 5-3 6-9 3-5-3-13-13-13-14l-2-4c-4-3-5-6-3-4l-1-2c-4-3-4-3 1-2h1l-6-4c-5-4-5-6 0-3 6 3 4 1-2-3-6-3-8-5-4-3l7 1-6-2-15-8 5 7zm-274-2c-10 4-14 7-9 5 6-2 6-1 1 2l-6 4c-2 2 0 1 4-1l3-1c0 1-2 3-5 4-5 3-8 6-5 5 5-2 5-2 3 0l-2 3c1 1 0 2-2 4l-3 4-5 7c-7 8-17 12-17 6l2-2 2 1h1c3-2-3-5-7-3-2 1-3 6-3 9 2 5 8 7 13 3 4-2 7-5 18-21a451 451 0 0 1 27-34l-10 5zm308 9c15 14 25 22 30 25 7 4 10 4 3 0-6-3-9-6-20-15l-13-11-5-4 5 5zm-408-3c-2 1-1 2 2 2l2-2h-4zm69 3l-12 10-15 12c-9 6-9 6 0 2a221 221 0 0 0 27-24zm405-3c-2 1 0 2 3 2s3 0 2-2h-5zm-448 3c-6 4-7 9 0 13l5 5 1 3v-2c1-2 0-3-1-4-4-2-4-11-1-16l-4 1zm423 2c3 5 2 10-1 12l-2 4v3l2-3 5-5c6-5 5-10-3-14l-3-1 2 4zm-397 8v1l1-1h-1zm373 0l1 1 1-1-2-1-1 1zm-382 7h1c2-1 3-2 1-2l-2 2zm389-1l2 1h1c-1-2-3-3-3-2zm-397 4c-1 3-1 3 1 2v-3c-1-2-1-2-1 1zm407 1l1 1v-1l-1-2v2zM87 275l2 2 1-2-2-2-1 2zm524-1c-1 1 0 3 1 3l1-2c0-2-1-3-2-1zm-517 7v1l2-1-1-1-2 1zm510 0l2 1 1-1-1-1-2 1zm-7 3l1 1 1-1-1-1-1 1zM88 295c-1 1 4 3 5 2 0-1-2-3-4-3l-2 1zm520 1c-1 1-1 1 1 1l4-2c0-2-4-1-5 1zM90 88h10c1-1 1-1-1-1h-6c-5-1-5-1-3 1zm37 0l4 3h2l-7-4 1 1zm-39 26l1 1 1-1-1-1-1 1zm257-17c-1 2-1 2 1 1l2-2c0-1-1-1-3 1zm8-1l2 2c1 1 1 1 0 0 0-2-2-3-2-2zm-98 13c-5 3-6 4-1 2l6-6-5 4zm39-10h2l-2-1v1zm111 0h2l-2-1v1zm37 8c1 2 6 5 8 5l-6-5h-2zm-230-6h2c1-1 0-1-1-1s-2 0-1 1zm85 20v1l1-1h-1zm104-1l2 2-2-2-2-2 2 2zm-117 2h2l-2-1v1zm131 0h2l-2-1v1zm-78 50l2 2c1 1 1 1 0 0l-2-2zm10 10h6c2-1 1-1-3-1s-5 0-3 1zM207 490v280h286V210H207v280zm26-276c3 3 3 4 1 5-2 2-2 2-6-1l-3-3-3 3c-4 3-6 4-6 1-1-2 3-7 7-7 5-1 6-1 10 2zm42 1c3 3 3 3 1 5s-2 2-5-1l-5-3-3 3c-2 3-3 3-4 2-2-2-2-3 0-6 2-2 7-4 11-3l5 3zm39-3c3 1 3 3-1 4h-3c-1-1-2-1-4 2-4 3-6 4-7 1l3-5c4-3 8-4 12-2zm42 1c3 2 4 4 1 6-2 1-2 0-4-1-2-3-4-3-6 1l-2 2-2-2-2-2 2-2c2-3 4-3 10-4l3 2zm45 2c2 3 2 4 0 5s-3 1-5-2c-4-3-4-3-5-1h-3c-2-1-2-3 1-5 4-2 9-1 12 3zm41-1c3 4 4 7 0 8l-4-3-4-3-3 3-4 3c-4-2 0-10 5-10 5-1 6-1 10 2zm42 0c4 4 4 4 2 6l-2 2-4-4-4-3-3 4c-3 3-3 3-5 1-2-1-2-1 1-5l10-4 5 3zm-232 5l6 5-6 6-5 6-6-6-6-6 5-5 6-6 6 6zm168-1l5 7-5 6-6 5-5-5-6-6 11-12 6 5zm-126 1l5 5-5 5-6 6c-1 0-4-2-6-5l-5-5 5-5 6-6 6 5zm42-2c9 5 15 17 13 26-1 6-7 14-9 14s-1 2 1 3c3 0 6 5 7 9 1 5 4 5 4 0 1-3 2-5 5-7 4-4 5-5 3-5s-6-6-8-11c-2-8 1-18 7-25 8-7 20-8 28-2 4 3 7 8 7 11s1 3 3-1c2-2 2-2 4 0 3 2 3 2-1 6-3 3-3 3-5 1-1-1-1-1-1 1 0 3-3 8-6 9l-8 2c-4 0-6-1-7-3-3-2-4-5-2-6l1 1c0 1 5 3 8 3 2 0 2 0-1-1l-5-2-3-2c-2 0-3-1-3-2 0-2 3-3 4-1h1c0-2 2-1 2 1 1 2 1 2 4 2s4-1 4-3c0-4-1-7-4-8-10-5-18 7-12 19 3 6 7 10 14 13 9 3 20 10 29 17l7 6-1-5c0-6 2-12 7-14h5c3 2 4 5 2 5h-9c-1 1 0 2 2 1 3 0 3 0 2 2-2 3-1 12 1 16 2 5 10 16 11 16v-12c0-17 3-26 10-29 4-2 11-2 9 0l2 2 1 1 2 3c2 1 2 2 1 3h-2c-4-2-10 3-14 12-2 4-2 6-2 17-1 8 0 13 1 15 2 4 2 4 2-7 1-9 1-12 3-17 5-8 11-11 17-7 3 2 3 3-1 2h-2l2 1c4 2 7 7 5 8h-2c-2-3-5-2-8 2-4 5-6 15-6 26 0 9 1 10 7 22 8 17 13 36 13 56 1 8 1 9 3 9s7 4 7 6l-2 1c-10 0-20 17-20 34v3l-3-2c-3-5-4-10-3-18 0-4 2-9 3-11 4-8 5-23 2-36-2-6-2-6-4-4l-3 2 3 8c4 10 5 21 2 26l-1 4-1-9c-1-13-6-23-13-27-4-2-13-3-11-1h-1l-5 3c-3 2-3 2-4 1-1-2 0-5 4-8 3-2 4-2 9-2h4c-3-2-16 0-16 2l-1 1c-2 0 0-4 3-8 2-3 8-6 9-5l1-5-1-6-5 3c-2 3-3 3-3 2l1-4v-1c-3 4-3 1-1-3 1-1 4-4 6-4l2-2c-3 0-8 3-10 6-2 4-3 4-3 0l-1-4c-2 0-1-6 1-12l2-3 2 3c1 3 1 3-2 7l-2 4 2-2c5-8 18-8 24 0 2 3 2 2 0-5-3-8-7-15-13-25a94 94 0 0 0-22-24c1-2-16-15-24-19-10-6-20-7-24-2-3 2-2 7 0 10 2 2 5 1 5-2 0-2 0-3-2-3-4 0-4-3-1-4 5-1 8 4 7 9l-2 4h5c9 0 21 8 33 23 6 8 6 8 4 11s-4 3-5-1c-3-8-24-25-32-27-3 0-3 0-2 2 2 3 0 4-2 2h-2l2 2c2 0 3 2 0 2-5 2-8-4-6-9 1-2 1-2-3-2-5 0-10-4-12-9l-3-4-2 1-2 5c-2 4-6 7-11 7-3 0-3 0-2 4 0 2 0 4-2 6-3 2-3 2-5 1-1-1-1-1 1-2l2-4-1 1-3 2c-2 0-3-2-1-4s-2-1-8 1c-10 5-22 17-28 28-3 5-2 5 4-3 5-7 15-17 17-17a126 126 0 0 0-20 26c-1 2-6-2-6-5-1-3 0-4 4-10 11-16 25-27 35-27 5 0 6-1 4-2s-1-7 1-9c1-2 2-2 5-2 3 2 4 4 0 4-3 0-4 1-3 4 0 2 4 3 6 1s1-9-1-11-3-2-9-2c-8 1-15 4-26 12-24 18-42 42-49 65l-1 3 4-3c9-9 23-5 24 7 0 6-1 7-3 2-1-3-6-7-9-7l2 2c4 2 7 6 7 8s-2 1-3-1-1-2 0 0l1 4c0 2 0 2-3-1-3-4-5-4-5-1-2 6-1 8 2 9 4 1 8 5 10 10 2 3 2 4-1 1-2-2-13-3-16-1h4c5 0 6 0 9 2 3 3 6 7 5 9l-5-3-8-3c-5 0-6 0-10 3-6 5-12 18-12 29 0 6-1 6-3 2l-1-2 3 7c3 6 4 17 2 22l-3 6-3 2v-7l-3-13c-3-8-10-16-15-17l-4-1c-1-2 5-6 8-6 1 0 2 0 1-1a165 165 0 0 1 16-67c4-9 4-10 5-19 0-13-2-23-6-27-3-3-6-4-7-1-1 2-3 1-3-2l4-5 3-2h-3l-3 1 3-2c5-4 8-4 13 1s7 12 7 24c0 10 0 10 2 7l1-17c0-12 0-14-2-18-3-7-13-15-13-11l-2 1c-2 0-1-4 1-5l2-2 1-1 1-2c-1-2 8-1 11 1 7 5 11 22 8 37l-1 5c4-5 10-13 12-18 3-5 4-11 2-16-1-2-1-2 1-2l3 2h1l-1-2c-1-2-2-2-5-1-5 1-7 0-5-3 2-4 9-3 12 2 2 4 3 9 2 12s-1 3 6-2c10-8 15-12 26-17 12-6 17-10 19-17 2-10-2-18-10-17-6 1-8 4-8 8 1 3 1 4 4 4 2 0 3 0 4-2 0-2 7-3 7 0l-2 2-4 1c-1 1-3 3-5 3l-3 1h3l6-2c2-2 3-2 3 1s-5 6-10 6c-9 0-14-5-14-15 0-4 1-6 3-10 6-9 17-11 27-6zm125 2c3 2 5 5 5 6l-5 6-6 5-5-5-5-6 11-11 5 5zm-248 3l2 2-3 3-3 2 1-10 3 3zm278 2c0 5-1 5-3 3l-2-2 2-3c3-3 4-2 3 2zm-263-1v3c-3 3-8 0-5-4 2-1 3-1 5 1zm40-1c3 0 2 4 0 5s-6-2-4-4c1-2 2-2 4-1zm85 1l-2 2c-2 2-4-1-3-3 2-1 5-1 5 1zm42 0c2 2 3 3 1 3s-4-3-4-4 1-1 3 1zm42 0c2 2-1 6-3 5-3-1-3-4-1-6 2-1 3-1 4 1zm42 0c2 2 2 2 0 4h-4c-2-2-2-2 0-4l2-2 2 2zm-258 7c3 3 5 3 8-1 3-2 3-2 4-1 3 2 2 4-3 9l-4 4-6-5c-5-5-5-6-4-7 2-2 2-2 5 1zm43 1l3 3 4-4c4-3 4-3 6-1 1 1 1 2-4 7l-6 5-5-5c-5-4-5-5-4-7l2-2 4 4zm40-1v4c-1 1-1 1-3-1-2-3-2-3-1-5 2-2 3-1 4 2zm139 3l-5 5c-4 4-5 3-10-2-3-5-4-7-1-7 2-1 3 0 5 2l4 3 3-3c3-3 4-4 5-3 1 2 1 2-1 5zm37-2l3-4 2 2 3 2-6 5-5 6-5-6c-6-5-6-5-4-7 1-2 2-2 5 2l4 3 3-3zm-264 9l5 6-5 5c-5 5-6 5-7 3-2-2-1-3 2-6 2-2 2-2 0-4-3-4-4-9-1-9l6 5zm26-3c1 2 1 3-2 5l-3 4 3 3c3 3 4 5 1 6-1 0-3-1-6-5l-5-5 10-10 2 2zm16 3l5 5-4 4c-4 5-7 7-9 5-1-1 0-2 3-5l3-3-4-4c-3-3-3-4-2-5 2-3 3-2 8 3zm26-3c1 1 0 3-2 5l-3 3 3 3c3 3 4 5 1 6-2 1-3 1-6-3l-5-5c0-2 9-11 11-11l1 2zm16 3l5 5-5 5c-5 5-6 6-8 4-1-2-1-3 2-5l3-4-2-2c-3-2-4-5-3-7l2-1 6 5zm109 1c-4 4-5 5-1 9 3 3 3 3 2 5-2 1-2 1-8-4l-5-6 5-5 5-5 2 2c2 2 2 2 0 4zm21 4c0 1-2 4-5 6-5 5-5 5-7 4-1-2-1-2 2-5l3-4-3-3c-3-4-3-4-1-6 1-2 2-2 6 3l5 5zm22-8c1 1 1 2-2 4l-3 4 3 4 4 3-3 2-2 2-5-5-5-5 5-5 6-6 2 2zm16 4l4 4c0 2-9 11-10 11l-2-2c-1-2-1-3 2-5l2-3-2-3c-3-3-4-5-2-7 2-1 2-1 8 5zm24-3l-1 5c-2 3-2 3 0 6 3 6 0 7-6 1l-4-5 4-4c4-5 6-6 7-3zm-243 5c1 2 1 2-1 4s-2 2-3 0c-2-1-2-2-1-4 2-2 2-2 5 0zm41 1c2 2 2 2 0 4h-3c-2-1-2-3-1-5 2-1 2-1 4 1zm126 0v4c-2 1-2 1-4-1s-2-2 0-4c2-1 3-1 4 1zm43 1c0 3-4 5-6 3v-3c2-3 6-2 6 0zm-224 14l-2 4-5-3-3-2-3 3c-3 2-5 2-6 0-1-1 1-4 4-7l5-5 5 5 5 5zm42 1c0 1-6 0-8-2-2-1-2-1-5 2-4 3-5 4-6 1-1-1 1-3 4-7l5-5 5 5c3 2 5 5 5 6zm36-7l3 4-2 1h-4c-1-1-2 0-5 2-2 3-3 3-4 2-3-2-2-3 3-8l5-5 4 4zm85 2c4 3 5 5 4 6 0 3-3 2-6-1-2-2-3-2-4-1h-5l-2-2 3-3 5-4 5 5zm42 0c6 5 6 6 3 7-2 1-3 1-5-2-3-3-4-3-5-1-2 1-3 2-5 1h-3l5-5 5-5 5 5zm42 0l5 6-3 2c-2 0-3 0-5-2-2-4-3-4-6 0-1 2-4 3-6 1-1-2-1-3 4-7l5-5 6 5zm-158-3c0 2-3 3-5 2l-1-2h6zm58 1c-2 2-5 2-5-1l3-1c3 0 3 0 2 2zm-134 4l-2 1c-1 0-2 0-1-1 0-2 2-2 3 0zm45 3l5 5-6 4-6 4-2-3c0-2-2-4-3-5-1-2-1-2 3-6l4-4 5 5zm166-2c3 2 2 3-1 1-4-2-4-2-3-3 0-1 1-1 4 2zm-42 1c3 2 3 3 1 5-1 2-1 2-3 1l-3-1c-2 1-2 1 0 3 4 5 2 7-4 2l-4-3c-1 0 8-10 10-10l3 3zm-204 4l2 3c0 2-4 6-5 6l-1-6 1-6 3 3zm15 2c1 3-3 6-5 4v-4c1-3 4-3 5 0zm40 1c0 4 0 4-2 2s-2-2 0-4l2-2v4zm169-1c2 2 2 2 0 4h-3c-2-1-2-3-1-5 2-1 2-1 4 1zm42-1c2 3-2 7-5 5v-5h5zm12 0c1 2 0 7-1 7l-2-2c-2-2-2-2 0-4s3-2 3-1zm-24 2c1 2-1 3-2 1v-3l2 2zm-245 6l3 3 4-3c3-4 5-4 6-1 0 2-1 3-5 7l-5 5-5-4c-5-5-6-8-4-9 3-2 4-1 6 2zm251 0c4 4 5 4 8 0 3-3 3-3 5-2l1 2-10 11-6-5c-5-5-5-5-3-7 2-3 2-2 5 1zm-204 1h3l1 3-6 6c-1 0-3-3-3-7l-1-4 2 2c2 2 2 2 4 0zm164 0c2 3 3 5 1 7-1 1-1 1-4-1-3-3-4-6-2-7 1-1 2-1 5 1zm-217 9l5 5-5 5-6 5c-2-1-1-6 1-8s2-3 1-4c-3-2-4-5-3-7l1-2 6 6zm103-4c2 1 2 2 1 5-2 3-6 3-7-1-1-2-1-2 1-4 3-2 3-2 5 0zm-76 1c0 2 0 2-2 2-3-1-3-2-2-3 1-2 3-1 4 1zm145 1c0 3-2 5-5 5-5-2-4-8 1-8 3 0 4 1 4 3zm75-2v1c-2 1-3 0-2-1h2zm29 2l-1 4c-2 3-2 3 0 6 1 3 2 7 0 7l-9-9 4-6c4-4 6-4 6-2zm-183 3c3 4-1 10-5 7-3-2-2-8 2-8l3 1zm88 1c2 2 2 2 0 5-1 2-2 2-4 1l-3-3c0-5 4-6 7-3zm-98 7l2 2c0 2-3 4-5 4s-4-2-4-4c0-4 5-5 7-2zm109 2c0 3 0 3-2 4-3 0-6-1-6-4 0-2 2-4 5-4 2 0 3 1 3 4zm-182 1c0 2 3 4 4 4 2-1 5 2 5 4l-1 2c-2 1-3 1-5-2l-4-3-3 3c-3 3-4 3-5 2-3-2-2-3 3-8 4-4 6-5 6-2zm257 3c4 4 4 5 3 7-2 2-3 1-6-2l-3-3-4 3c-2 3-3 3-5 2s-2-3 2-5l3-4c0-5 4-4 10 2zm-192 3v4c-2 3-8 1-8-3s6-5 8-1zm125-1c3 2 1 6-4 6-3 0-4-3-2-6 1-2 4-3 6 0zm-204 5l3 4c0 1-5 6-6 5v-12l3 3zm254 2c1 2 1 3-2 6-4 4-6 4-5-1l1-7c1-2 1-2 3-1l3 3zm-239 0c1 1 1 5-1 5l-3-2c-2-1-2-1 0-3s2-2 4 0zm14 3c0 5-1 5-4 2-2-3-2-3 0-5s3-2 4 3zm154-2l6 5 10 13c0 2-2 0-9-8l-10-11c-3-3-1-2 3 1zm83-1c2 2 2 2 1 4-3 3-7-1-5-4 2-2 3-2 4 0zm14 2c0 4-1 5-4 2-2-1-2-1 0-4s4-2 4 2zm-208 0v4c-2 4-8 2-8-2s6-5 8-2zm87 0c12 2 26 11 33 20 1 3 2 3 5 2 5-1 10-5 11-9 0-3 2-4 2-2h1c0-2 4-4 7-3 2 1 1 6-1 7h-4c-3-1-3-1-3 1v1c1 0 1 1-1 9-2 5-3 7-9 13l-8 10c-2 4-2 4-4 3-1-1-1-2 2-6l2-4-3 4c-3 3-4 3-5 2l2-5c4-6 4-7 0-3-3 4-5 5-6 4-1 0-1-1 1-4 3-4 5-8 4-9l-3 1c-5 2-6 0-2-4l3-4-4 1-6 3c-3 2-2-2 2-5 4-5 3-6-2-2l-6 3 2-5 2-5-4 4-5 3v-7c1-4 0-4-3 0s-4 4-4-1c1-4 0-5-2-1-1 3-3 3-5-1-1-3-3-4-3-1l-1 4h-2l-1-4-1-2c-1-1-2 0-1 3 0 4 0 4-2 3l-3-3c-1-2-5-3-4-1l2 3c2 4 1 5-3 1l-6-3c-2 0-2 0 1 4 5 6 4 7-2 2-5-4-7-4-4 0s2 6-3 2c-4-3-8-4-6-2h1l1 1 1 4 1 3-6-2c-5-3-7-2-4 1 5 5 3 7-2 3-2-2-3-2-4-1s-1 2 1 3c4 5 1 8-4 5-2-1-2-1-1 1l3 5c4 6 3 7-2 4-5-4-6-4-3 0 3 3 4 5 2 7-1 1-1 1-3-1l-6-4-3-2 3 4c5 5 8 10 7 10v1l3-5 6-7 3-2-2-3c-3-3-2-4 3-1 5 2 6 2 4-1-3-2-1-3 2-1 4 2 5 1 1-2l-2-2h2l6 2 4 2-2-4c-2-2-3-3-2-4l5 3 6 4-1-4c-1-5 0-5 4 0l3 3-1-4c0-5 1-5 3 0 2 4 3 4 3 0 0-3 2-5 3-4l1 4 1 3 2-3c3-5 5-5 4 1 0 4 0 4 1 3l8-6v3l-2 3 6-2 5-2-3 4c-2 2-2 3 0 2l4-2c4-2 5-1 2 2s-3 3-1 3l5-2c4-2 6-2 4 1-2 1-2 2 1 4l7 8 5 6 2-4a175 175 0 0 1 15-22c0 1-4 13-8 20-3 8-4 11-1 13 3 4 0 8-3 5v1l2 5c1 2 2 5 0 6l-2-1c-2-1-2-1-2 2 3 9 2 12-1 8v3c0 6-1 9-2 9-2-1-2 0-2 1 0 3-3 7-4 5s-2-1-2 3c-1 4-3 6-4 4l-1 2c-1 4-5 8-7 8s-1-8 1-21c2-9 3-13 6-18 6-10 6-19 0-29-4-6-6-7-14-7-7 0-10 1-15 5-7 7-12 7-22 0-6-3-10-4-15-1-5 2-10 7-14 15-3 8-4 19 0 24l4 4c3 0 16 23 17 31l-1 5-4-3c-3-3-3-3-2-1 1 4-4 1-6-4-1-4-3-5-3-2s-5-1-6-5v-4l-1 1-2 2c-1 0-3-5-2-7l-1-2-1 1c-1 2-4 0-4-2l1-5c2-4 1-6-1-3-3 5-5 0-2-7 1-3 1-3-1-2-4 4-5 1-2-5 2-4 2-5-1-3-2 2-2 0-1-5l2-4-3-3-4-7a784 784 0 0 1-5-23l7 16 5 10 2 3v-3c-2-8-2-9-1-9l3 3c2 4 3 5 2 0-2-4-4-7-13-17-8-10-11-18-11-24 0-5 2-7 3-5l1 4c0 5 7 11 14 11 2 0 3-1 6-5 10-14 21-23 36-27 7-1 26-1 35 1zm52 0l1 4c-1 4-8 2-8-2s5-5 7-2zm-197 8l3-3c3-2 3-2 5-1 1 2 1 2-4 7l-5 6-5-6c-5-5-5-5-3-7l1-2 4 3 4 3zm248-2l3 3 3-3c3-3 5-4 5-3l1 2c0 2-8 11-10 11l-5-5c-4-4-5-5-4-6 2-3 4-2 7 1zm-197 4c3 3-3 8-6 5-2-1-2-6-1-6 3-1 6-1 7 1zm-61 5l4 6c0 2-9 9-10 9-3-1-2-3 1-6l2-4c-4-5-5-7-4-8 1-2 2-1 7 3zm25 0l-2 4v8c-1 2-1 2-5-2l-4-4c0-2 8-10 10-10l1 4zm227 2l3 4-9 9-1-2c-1-2 0-3 2-5l3-2-4-3c-3-3-3-4-2-5 2-2 4-1 8 4zm23-1v8l-1 6-5-5-4-4 4-5c5-4 7-5 6 0zm-220 5v4c-2 4-8 2-8-2s6-5 8-2zm166 1c0 4-3 6-6 4-4-2-2-7 3-7 2 0 3 1 3 3zm-207 7c4 4 4 5 4 8l-1 2-3-3-4-3-4 3-4 3-1-2c-2-2-2-2 3-7l5-5 5 4zm255 8c-2 2-2 2-5-1l-3-3-3 3c-4 3-4 3-6 2-2-2-2-2 3-8l5-5 6 5c5 5 5 6 3 7zm-207-2l1 7c0 1-1 1-3-2l-3-7c1-3 3-2 5 2zm-65 3c3 3 3 4-1 8-3 3-3 3-3-6 0-4 0-5 4-2zm278 5v3l-3-2-2-2 2-3c3-2 4-1 3 4zm-264-3v4l-2 2-2-2c-2-2-2-2 0-4s3-2 4 0zm252 4l-2 2-2-2c-2-2-2-2 0-4l1-2 2 2c2 2 2 2 1 4zm-257 3c2 3 3 3 4 2 2-2 3-1 3 1l-4 8c-1 0-10-9-10-11l3-3 4 3zm261 6c-6 5-8 6-10 3s-4-11-3-11l4 3 3 3 3-3 3-4 2 2 2 2-4 5zm-268 4l5 4-2 3c-3 4-8 8-9 7-2 0-1-3 2-6 2-2 2-3 0-4-3-3-4-9-1-9l5 5zm276-2v16c-2 0-9-7-9-9l8-9 1 2zm-114 0l4 3c1 2 1 2-2 1-6-1-7-1-11 1h-4l7-5 4-1 2 1zm-38 7l-4 1-10 4c-1 2-2 0-2-2l3-3h13zm39 2c1 4-5 9-10 7-3 0-4-3-3-6 1-2 3-3 3 0 1 4 7 2 7-2h-1c-1 2-1 2-3 1-3-1-1-3 3-3 2 0 3 0 4 3zm-41 2l-1 2c-2 1-4 0-4-2h5zm19 0l-3 1-3-1 2-1 4 1zm-26 2c1 3 7 3 7 0h2c3 1-1 5-5 5-5 0-7-1-7-3 0-4 2-5 3-2zm56 4l-5 6-3 4 3-1c3-1 7-5 7-7s1-1 3 2 2 4 1 6l-4 5-2 5c0 3-2 6-3 5s0-6 1-9v-2l-2 2c-3 2-3 2-8 1-4-2-7-5-10-12-2-3-1-5 2-3s5 1 10-2c5-4 7-3 3 0v2l4-5c2-3 2-3 3-2v5zm97 0c3 4 4 5 2 7-3 2-11-9-9-12 0-1 3 0 7 5zm-260-1c0 5-5 9-7 8-2-2-1-4 3-7l4-4v3zm135-2l-6 2-3-1c0-2 1-2 5-2l4 1zm-31 5c2 1 11 2 14 1h2c0 3-13 5-17 2-5-3-3-5 1-3zm32 3l2 8c2 3 2 4 0 5v1c2-1 5 1 5 2l-3 1-5 2-3 3-2-2c-1-2-3-2-7-3-5 0-6 0-9 3-2 2-3 3-1 2 5-2 11-2 6 1h3c4 0 4 0 3 1-2 2-1 3 2 2 2-2 2-2 4-1l1 6c0 6-2 7-13 7-9 0-13-1-15-6s2-11 10-15l6-2c3 1 5-3 5-12 1-6 1-6 4-6 7-1 7-1 7 3zm-35 0c4 3 11 4 17 1l5-2c1 1-7 12-11 15-5 4-6 4-9 4l-4-1 1 3c2 6 2 8 1 8l-1-1-6-8c-7-7-8-10-6-14 2-3 3-2 2 2 0 4 0 5 2 7l3 1-2-2c-2-2-3-6-1-10 1-3 3-4 3-2s6 8 9 8c4 1 4 0-1-2-2-1-4-2-5-5-2-5-1-5 3-2zm-112 8l-2 3-1-5c-1-6 0-7 3-3l3 2-3 3zm279-1v3l-3-2-2-2 2-3c2-2 3-2 3 0v4zm-224-3l2 3c0 2 1 2 5 3 8 1 10 1 12 3 3 4 4 8 1 11-2 3-5 2-5 0l1-2c1 0 2 0 1-1 0-3-5-2-7 0-3 3-2 5 0 6 3 0 5 4 4 7l-3 1c-4-1-6 0-6 3 0 2 0 2 4 0l5-1c1 1 2 4 0 4s-4 6-4 9v4l2-4 1-5h1l3 7c3 9 6 17 10 20 2 2 2 3 1 3-2 0-7-4-10-8l-3-2 8 10c4 3 11 4 18 3 6 0 6 0 6-3l-2-2c-2 0-3-2 0-3 5-3 11 3 11 10 0 4 0 4 3 3 2 0 3-1 3-3s4-3 5-1c1 3 32 3 32 0 1-2 5-1 6 2l2 2c3 1 3 0 3-4l3-7c3-2 8-3 10-2 2 2 1 3-1 3s-3 1-3 2c0 3 1 3 5 3 6 1 15 0 18-2 2-1 7-6 8-10 3-5 2-5-1 0-3 4-10 11-12 10l3-4c3-3 7-13 10-20l2-7 3 5c1 3 2 4 2 2 0-3-2-8-4-11-4-4 0-5 5-2 3 1 3 1 3-1 0-3-1-4-5-3-4 0-4 0-4-3 0-2 1-3 3-5 3-2 4-3 1-6-1-2-6-3-7 0-1 1 0 1 1 1s2 0 2 2c0 1 0 2-2 2-5 0-7-8-3-12l7-4c10-1 10-1 10-3 3-10 15-3 22 11 2 5 3 7 3 17 0 9-1 13-2 17-2 6-2 8 5 15l5 9c1 9-9 22-24 27-4 2-5 2-3 3 12 4 20 10 24 18 4 7 4 12-2 18-7 8-7 10-5 19 4 15 2 31-7 41-7 7-14 8-16 2 0-3-2-4-8-4-4 0-9-2-10-5-2-3-1-9 1-10 3-2 5-1 5 1s-1 2-2 2l-1 1c1 2 5 2 7 0 3-2 2-4-1-6-2-1-3-3-3-5 0-3 0-3 4-2 4 0 4 0 5-3s1-3-1-2c-6 2-7 2-8 1s-1-2 1-4 5-11 4-12l-2 5-3 4-2-6c-3-9-7-18-10-21-4-3-4-4 1-2 4 2 7 5 9 10l2 2-2-5c-2-4-8-10-11-10l-6-1h-8c-5 0-6 1-6 3s1 2 3 2c3 0 3 1 0 3-6 2-13-5-12-11 1-2 0-3-1-2h-2l-2 2c-1 3-5 4-6 1l-16-1c-12 0-16 0-16 2l-3 1c-2 0-2-1-2-4l-3-1c-3-1-3 0-3 3 0 5-2 9-6 10s-7 0-7-2l2-1 2-2c0-3 0-3-6-3-6-1-14 0-18 3l-8 10 3-3 7-6c4-2 5-1 2 2-3 2-9 14-10 20-2 8-2 7-3 6l-3-4-1-3v3c0 3 2 7 4 8v5l-5-1c-4-2-4-2-4 0 0 3 2 4 6 3 2 0 3 0 3 2 1 2-1 6-4 7-2 0-2 1-1 2l1 4c2 1 7 1 8-1l-2-1c-1 0-2 0-2-2 0-3 3-3 6 0s3 6 0 9c-2 3-6 5-13 6-4 0-5 1-5 2l-3 4c-2 1-2 1-6-1-5-2-9-6-13-14-2-6-2-8-2-17l1-16c3-6 2-8-3-15-6-7-7-10-6-14 1-9 12-19 23-23l5-2-5-2c-14-5-25-18-23-27 0-2 2-6 5-9l6-9-2-10c-2-8-2-18 0-26 3-9 12-20 17-20l4 2zm213 0v3c-2 2-3 1-3-1-1-3 1-4 3-2zm-258 11c0 4-1 4-5 0-3-3-3-3-1-5 1-2 1-2 4 0l2 5zm264-3c0 2-6 8-8 8s-1-6 2-9c4-3 6-3 6 1zm-114 3l8 5c3 4 4 4 4 8l-2 7c-2 3-2 3-10 3l-11-2c-4-2-6-6-5-8s1-2 3-1v-1c-1-3 0-3 4-1l3 1-2-2c-2-4-1-4 3-3l3 1c0-2 0-2 3-1h3l-4-3-4-3h4zm-157 6c3 3 3 3 1 4l-4 1c-2-1-4-6-3-8 0-2 2-2 6 3zm277-2l-3 7v2c2 2 4 8 3 8-2 0-5-3-5-6l-2-4-2-2 3-4c4-3 5-4 6-1zm-280 11l2 2c1 1 1 1-1 3s-3 2-4 1v-5c1-3 3-4 3-1zm198 6l6 5c1 3-1 12-3 16-3 7-9 14-12 15-4 3-7 3-7 2l-2-4c-3-2-8-3-12-1l-6 3c-2 0-5 1-6 3-3 3-3 3-17 3l-15 1-4-5-7-4c-1 1-4 0-6-1-5-3-11-1-12 3-1 2-2 3-3 2-10-2-16-10-18-24-1-3 0-4 2-6l8-5 4-1 4 4 5 4c1 0 2 0 2 2s4 5 5 3c0-1 3 1 3 3l1 1 1 2c1 2 1 2 3 2 1-1 2 0 5 2 4 4 5 4 4 1 0-3 2-5 3-2l5 4c5 2 7 3 16 3 8 0 10-1 14-3l6-6c2-3 4-4 4-1l1 1c2 0 8-8 8-11 1-3 3-4 3-1s3-2 4-6c0-4 1-5 3-2h2l1-4c0-3 1-2 7 2zm73 2c6 5 1 9-4 3-3-2-3-2-1-4 2-3 2-2 5 1zm-260 0c2 1 1 1-1 4-3 2-5 3-6 0-1-1 2-6 4-6l3 2zm152 2l4 4c1 3 0 5-1 3h-2l-3 1-3 2c-2 3-3 2-2-1 1-4 0-4-2 0-1 3-4 4-3 1 0-3-1-2-2 1l-2 3-1-3c-1-2-1-2-1 0l-3-1c-2-3-2-3 0 2 1 2-2 1-4-2l-2-2v2c1 4 0 4-3 1l-2-2c-1 1-2 1-3-1-2-2-3-3-4-2-2 0-2 0-2-2 0-3 1-3 13-5 11-1 23-1 28 1zm-162 4l2 3c0 2-4 6-5 6l-1-5 1-6 3 2zm14 2v4c-2 1-2 1-4-1s-2-2 0-3c2-2 3-2 4 0zm251 0c2 2 2 2 0 4h-3c-2-1-2-3-1-5 2-1 2-1 4 1zm13-1c1 2 0 7-1 7l-2-2c-2-2-2-2 0-4s3-2 3-1zm-265 11l2-2c2-2 4-3 4 0 1 1 0 3-3 6l-4 4-6-5-5-6 2-2c2-1 3 0 5 2l5 3zm152-4c0 3-7 10-10 11-10 3-18 2-26-4-6-3-5-4 1-1 10 4 24 2 30-5 4-3 5-4 5-1zm95 1c3 4 5 4 7 1l4-3c4 0 3 3-3 8l-5 5-4-4c-5-4-6-7-4-9s3-1 5 2zm-257 10l5 5-5 5c-6 6-9 7-8 2l3-5c1-2 1-2-1-5-2-4-3-7-1-7l7 5zm276-3l-1 5c-2 3-2 3 0 6v7l-6-4c-5-6-5-5 1-12 4-3 5-4 6-2zm-23 5c3 3 3 3 1 5-2 4-3 3-5-2-2-7 0-8 4-3zm-234 1l-2 3c0 2-2 3-3 1 0-2 3-6 4-6l1 2zm94 9c0 2-1 3-3 3s-4-3-1-5c2-1 4-1 4 2zm48-1c0 3-1 4-3 4-3 0-4-2-2-4 2-3 4-2 5 0zm-147 3c4 4 5 8 2 9l-4-3-3-3-3 3c-4 3-5 4-7 1-1-1-1-2 4-6l6-5 5 4zm252 1c4 4 5 5 4 6-1 3-3 3-7-1l-3-3-3 3c-3 3-4 3-5 2l-2-2c0-2 8-10 10-10 1 0 4 2 6 5zm-269 7c3 3 3 4 0 7s-4 3-4-3 0-7 4-4zm14 2c2 1 1 4-2 5l-3-1c-1-2-1-3 1-4 2-2 2-2 4 0zm251 0c2 2 2 2 0 3-1 2-3 2-4 0v-3c2-2 2-2 4 0zm14 0l-1 5v3l-3-3c-2-3-2-3 0-5 2-3 4-3 4 0zm-26 1c1 1 1 2-2 5l-5 3 6-10 1 2zm-227 3l2 5-7-7c0-3 3-2 5 2zm-16 4l2 3 4-3c3-3 3-3 5-2 1 2 1 2-3 7l-5 5 5 5c4 5 4 5 3 7-2 1-2 1-5-2l-4-3-3 3c-2 3-3 3-5 2s-2-2 2-7l4-5-3-4c-5-6-5-6-4-7 2-3 3-2 7 1zm251 0l2 3 4-3c3-3 3-3 5-2 1 2 1 2-3 7l-5 5 5 5c4 5 4 5 3 7-2 1-2 1-5-2l-4-3-2 3c-4 3-5 4-7 2-1-2-1-3 4-7l4-5-4-5c-5-4-5-5-4-6 2-3 3-2 7 1zm-261 8l2 2-2 3-3 2-1-5 1-5 3 3zm29-2c1 2 1 7-1 8s-2 1-5-1l-2-3 2-2c3-3 4-4 6-2zm223 2l2 2-2 3c-4 3-6 2-5-3v-5c0-1 3 0 5 3zm26 2v6l-3-3-2-3 2-2 3-3v5zm-239 0l-2 2c-1 1-2 1-2-2 0-2 1-3 2-2l2 2zm200-1v2c0 2 0 2-2 1-1-1-2-2-1-3l3-1v1zm12 14c3 3 3 5 1 5l-6-8c0-2 2-1 5 3zm-225 1c-2 4-5 5-5 3s5-7 6-7l-1 4zm-26 0l2 2-2 3c-3 4-4 4-4 0v-6c-1-3 1-3 4 1zm278 2c1 5-1 5-3 2-2-2-2-2 0-4l3-3v5zm-264-1v4c-2 1-2 1-4-1s-2-2-1-3c2-2 4-2 5 0zm252 0c1 1 1 1-1 3s-2 2-3 1c-2-1-2-3-1-5 2-1 3-1 5 1zm-257 7l2 3 4-3c3-3 6-3 6 0 0 2-7 10-9 10l-6-5c-5-4-5-5-4-6 2-3 3-2 7 1zm251 0l3 3 3-3c4-3 7-4 7 0 0 2-8 10-10 10s-10-8-10-9c0-2 2-4 3-4l4 3zm-120 4h-2v-1l2 1zm15 4c1 2 4 3 7 4l6 2c3 2 9 1 11-1l2-4h2c5 1 9 4 13 11 5 7 6 11 7 18l1 4-6 5c-7 5-8 5-8 2l-1-4h-2c-2 3-3 2-3-2-1-5-4-9-4-6s-2 2-3-1l-4-8-4-4-1 2-1 3-2-4c-4-6-9-8-20-9-9 0-16 2-21 6-2 3-3 3-4 2v-4c1-2 0-1-4 2l-5 2-3 2-1 2-1 1-1 3h-2c-1-2-5 0-5 3 0 2-1 2-2 2l-5 4-4 4-4-1-8-5c-3-3-3-4-1-13 2-6 7-13 12-16 4-2 9-3 8-1l1 3c1 3 2 3 6 3l6-1 5-2c2 0 4-1 7-4l4-4 14 1c15 0 15 0 18 3zm-152 2l5 5-5 5c-6 6-8 7-8 2l3-5c1-2 1-2-1-5-5-8-1-9 6-2zm113-2c0 2-3 4-5 2v-3c2-3 4-2 5 1zm48-1l-1 3h-4c-2-2-1-5 2-5l3 2zm115 0l-1 5c-2 3-2 4 0 6v6l-4-3c-7-7-7-7-2-11 5-6 6-6 7-3zm-22 6l2 2-3 3c-4 4-6 3-4-2l2-5c0-2 1-1 3 2zm-236 2c1 4 1 5-2 2l-2-3c1-3 3-2 4 1zm8 4c3 6 3 14 0 21l-3 9c-2 3-2 8-2 14 0 9 2 22 3 23l3-1 2-3-2-6c-4-9-6-19-4-25s3-7 3-2c0 14 6 27 14 32 4 3 12 2 17-1 4-4 5-3 3 1-2 6-11 9-17 6-2-1-2-1 0 1s13 1 16-1c3-3 3 0 0 4s-7 7-10 7c-2 0-2 1-2 4l2 7 4-3 3-3v5l2-1c1 2-2 6-6 9l-3 2c3 0 8-4 9-7 2-3 2-3 3-2 1 3-1 9-3 12-5 5-15 5-21-1l-4-3 2 5c2 8 5 14 11 23 18 28 45 51 62 52 7 0 11-1 12-5 2-4-1-8-4-9-3 0-3 0-3 3s0 3 3 3c4 0 4 2 0 4-3 0-3 0-5-2s-3-6-1-9c1-1 0-1-4-2-10 0-26-12-36-27-4-6-4-7-3-10l2-4 4 6c7 12 24 27 33 29 3 0 3 0 2-2-1-3-1-3 1-3l3 2h1l-3-3-2-1 2-1c4-2 9 3 7 9-1 2-1 2 3 2 3 0 5 1 7 3l5 7c0 4 3 4 5 0 2-5 7-10 12-10 3 0 3 0 3-3-1-3-1-4 1-6 2-3 3-3 5-2v2l-2 2h1c2-2 4-1 4 2-1 2-1 2 2 2 8-2 28-19 31-27 2-4 3-4 6-1 1 3 1 3-4 9-8 11-16 18-24 23l-11 3c-3 0-4 0-3 1 3 5-1 12-5 11s-4-4 0-4c2 0 3-1 3-3 0-3-4-4-6-1-2 1-2 2-2 5 1 6 3 7 11 7 12-1 26-10 44-28 15-15 24-29 31-47l2-6-4 3c-6 7-15 8-21 2-3-3-4-2-1 1 2 3 2 3 1 5l-2 3-4-12c0-2 2-4 2-2v-7c1-1 2-1 4 3l5 5c5 2 6 1 2-1s-8-6-8-9l2 1c2 2 2 2 1 0l-1-4c0-1 1-1 4 2 4 4 5 3 5-4 0-4 0-4-2-4l-6-2c-3-3-7-10-6-11l2 1c2 3 13 4 16 2h-4c-5 0-6 0-9-2-2-1-4-3-4-5-1-2 1-5 2-3s8 5 12 5c10 0 19-13 20-30l1-8 1 4c3 5 2 16-2 26l-3 8 3 2 2 2 1-3 2-13c2-10 0-19-3-26-5-11-5-24 0-29l3-2v7c2 12 6 22 13 27l7 3 2 1c0 2-5 6-7 6-1 0-2 2-2 10-2 21-6 39-15 56l-6 19c0 8 1 21 4 25 3 6 7 9 10 6 1-2 2-2 2-1 2 1-2 6-5 8l-2 1h2c4-1 4 1 0 3-5 2-8 1-11-3-5-4-7-10-8-22 0-10 0-10-2-7l-1 15c0 11 0 13 2 18 4 8 11 14 14 11h2c1 1 1 2-1 4l-2 2v1l-3 2c-4 4-12 0-16-8-2-4-2-6-2-19v-15l-3 3c-5 5-10 14-11 18s-1 6 1 12c0 2 0 2-2 2-2-1-3 0-2 1h5c4-1 6 0 5 3-2 2-5 3-9 1-4-1-6-7-6-13l1-5-8 6c-10 8-17 13-26 17-4 1-9 4-11 6-9 7-9 25 0 27 7 1 13-4 11-9-1-3-7-4-8-1 0 2-2 3-2 1h-1c-1 2-4 1-4-1l3-2 3-2 5-2 4-1h-4l-6 2c-2 2-3 1-2-2 1-4 11-7 17-3 3 1 6 6 6 9l1 2v-1c-1-3 2-2 5 1 4 4 4 4 1 6-2 2-2 2-4 0l-2-3-1 4c-2 7-12 15-20 14-9-2-16-7-20-14-3-5-3-13-2-18 2-5 6-11 8-11s1-1-2-4-6-7-6-10-3-3-4 1c0 4-3 8-6 10l-3 2 3 1 5 8c6 14-2 31-17 34-8 2-18-3-22-10s-2-19 4-21c7-4 18-1 18 5 0 3 0 3-3 0l-6-2h-3l3 1c2 0 4 2 5 3l4 2c3 0 2 3-2 3-2 0-3-1-3-2-1-2-1-2-4-2-3 1-3 1-4 4-1 8 12 11 17 3 2-4 1-11-1-16-2-4-9-11-15-12l-13-7-20-15c-1-1-1 0-1 5 0 6-2 10-6 13-4 1-8 0-8-3s1-3 5-2h5l1-3h-1c-1 2-5 3-5 1 2-4 2-9 1-13-1-3-12-21-14-22l1 6c3 15-1 31-8 36-3 2-10 3-11 1l-3-2v-1c1-1 1-2-1-2l-2-3c0-2 2-3 4-1 0 2 5-1 9-6s6-14 6-26c0-7-1-12-2-13-2-3-2-3-2 8-1 13-3 19-8 24-4 2-7 3-11 0-4-2-4-3 0-2 2 0 2 0-1-2-2-2-4-3-4-5 0-3 2-4 3-1s7 0 9-6c3-5 4-13 5-22 0-8-1-9-6-19a160 160 0 0 1-15-61c0-8 0-9-2-8-3 0-8-3-8-6l2-1c6 0 14-8 17-17l3-13c0-8 2-8 5-2zm124 1c5 1 10 6 12 10 1 3-1 4-3 0-6-7-22-9-32-4-7 3-6 0 2-4 7-4 14-5 21-2zm-137 3c3 3 4 5 3 6 0 3-2 3-4 0-1-3-3-2-6 1s-4 3-6 2l-2-2 11-11 4 4zm253 1c5 5 5 6 4 8-2 1-2 1-5-2-3-4-5-4-8 0-3 3-5 3-6 0 0-2 0-3 4-7l5-4 6 5zm-150 6c-1 8-14 31-17 31l-4 3c-7 12 1 35 14 40 5 3 8 2 13 0 11-6 13-7 17-6l7 5c5 4 8 5 15 5s7 0 10-3c5-5 8-12 8-20 0-5 0-6-4-13-3-5-4-8-6-18-2-13-3-21-1-21s6 4 7 8l1 2c1-2 3 0 4 3 1 5 1 5 3 4 1-1 1-1 2 1l1 4 1 1c2 0 3 3 3 9v3c3-4 4-3 1 8 0 3 0 4 2 2 3-3 4 1 2 5l-2 5v1c3-3 6 1 3 5-3 3-2 6 2 14s8 18 7 19l-16-24c0-3-1-2-4 1l-9 11c-3 2-3 3-1 4 2 3 1 3-4 1-5-3-9-3-5 0l2 3h-2l-4-2-3-1 3 3 2 3-5-1c-6-3-6-3-5 0 2 4 0 4-5 0l-3-4v5c1 6-1 6-4 1l-2-3-1 3c-2 6-4 6-4 1s-1-6-3-1c-2 4-3 4-3-1v-3l-6 7v-4l1-4-6 4-5 3c-1-1 0-2 2-4l2-4-4 2-6 2h-2l2-2c3-3 2-4-1-2s-4 1-2-1c2-3 1-3-4-1s-6 2-4-1c3-2 2-4-1-6l-4-6c-3-5-3-5-5-2 0 2-3 5-5 7-3 4-3 4 0 2l5-3c2-2 2-2 3-1 2 2 1 4-2 7-3 4-2 4 3 0l4-1v2l-2 2-2 4c-2 3-3 4 0 3 5-3 8 0 4 5-2 1-2 2-1 3s2 1 4-1l4-2c2 0 1 3-2 5-3 3-2 4 3 1 7-3 7-3 7-1l-3 5c-3 4-1 4 5 0 5-3 6-2 3 2s-1 4 4 0c5-5 7-4 3 2l-3 3c0 2 3 1 7-2 4-4 5-3 3 1l-1 4 3-2 3-3c2-1 2-1 2 3-1 5 1 5 2-1l2-3c1 0 2 2 2 5s2 2 3-1c2-4 4-4 5-1 2 4 3 3 2-1 0-5 1-5 4-1s4 4 3 0v-7l5 4c5 4 5 3 2-2-2-2-2-4-2-5l6 3c5 4 6 3 2-2-6-5-5-7 2-3 6 3 8 3 3-1-3-3-3-7 0-6l3 1h2l-5-9-1-1c0-4 3-3 7 2 5 5 5 5 3 2l-4-5c-1-1-2-4 0-5l4 3 3 3-3-4c-2-4-2-5-1-6 2-1 2-1 4 2 0 2 4 7 8 11 6 6 7 8 9 14l1 7 1 4 1-1c3-3 9 2 7 5-1 3-6 3-7 0l-2-1c0 2-2 1-3-2 0-4-5-8-10-9-3-1-4-1-5 1-6 10-21 19-35 22-11 2-30 1-39-2-11-4-22-13-30-25-3-5-4-5-8-5-7 1-11 5-12 13-1 4-3 4-4 0-2-6 1-15 11-27l13-17c1-5 0-4-3 0-2 5-3 4-3-1l2-6c1-2 1-2-1-1s-4 5-6 11l-5 13c-1 4-4 5-3 2l3-12c3-10 4-12 8-16 2-2 2-3 0-7-2-5-1-7 2-5 2 1 2 1 0-3l-2-5c0-3 3-2 4 0 2 3 2 2 0-2-1-5-2-9 0-9l3 2c2 4 2 1 1-3-2-3-2-5-1-6 1-2 4-3 4-1l1 1v-2c0-3 1-7 3-7l2 2c0 2 0 2 1 1v-3c0-2 3-7 5-7l1 2c0 2 1 1 3-3l4-5c2 0 2 0 2 2l2-2 4-3 1 5zm-119 2l2 3c0 2-4 6-5 6l-1-5 1-6 3 2zm136 1l-1 3 2-3 3-3v4l-1 3 3-3 2-2 2-1h1l2 3v-1c0-2 0-3 1-2l3 3c2 4 3 4 2 0-1-3 0-4 2-1l3 2 3 1h2c1-2 2 0 1 2 0 3-5 6-10 6-2 1 0 1 4 1 8 0 9 1 11 7 0 5-1 9-6 13l-7 3c-4 0-4-1 1-3l4-3h-6c1-2 1-2-3 0s-5 1-3-2l2-3-3 2c-3 1-5 1-4-1l-1-2c-2 0-2-1-2-3 1-4 4-7 6-7 5 0-5-2-15-2-10-1-13-2-13-6l2-1 4-2 3-2c0 2 0 2 2 0 3-4 4-4 4 0zm142-1c1 2 0 7-1 7l-2-2c-2-2-2-2 0-4s3-2 3-1zm-264 2v3c-1 2-2 2-4 1-2-2-2-2-1-4 3-2 4-2 5 0zm251 0c2 2 2 2 0 4h-3c-2-1-2-3-1-5 2-1 2-1 4 1zm-256 8c3 2 3 2 1 4-3 2-3 1-6-1-2-2-2-3-1-4 2-3 3-2 6 1zm264-1l-3 4c-3 3-3 3-5 2l-2-2 3-3c3-3 6-4 7-1zm-134 5c2 1 3 2 3 6l-1 6c-2 1-2 1-4-1-3-1-4 0-2 2 1 1 1 1-3 1-4-1-4-1-2 1 1 1 1 1-2 1l-5-1c-2-1-1 0 1 2l5 3 2 1c0 3-11-2-15-7-4-6-2-14 4-15 4-1 16 0 19 1zm-139 1v4l-2 3c-1 0-3-5-2-6 0-2 1-2 4-1zm279 2l-2 5c-1 2-2 3 0 4 2 2 3 8 1 8s-8-5-8-7l2-2 2-4c0-2 3-6 4-6l1 2zm-167 7l-1 5-2 4h4c4 0 5 0 10 5 7 6 10 12 8 14-1 1-3 2-8 1l-9 1c-4 1-5 1-3-1 2-3 7-4 13-3 4 1 4 1 3-1-4-2-14-1-17 3l-2 3v-3c0-4 2-7 6-9 2 0 3-1 3-2l-5 2c-3 1-5 3-6 5-2 4-2 4-4 1s-1-7 1-10 3-4 1-3c-2 0-4 5-4 9 0 2-1 3-2 0-2-4-1-7 6-13l6-8 1-1 1 1zm-110 2c3 1 2 3-2 6-3 3-3 3-4 2v-6c2-3 3-4 6-2zm148 8c4 0 4 2-1 3-2 0-2 1-1 1 2 1 2 1 0 5l-2 8v4h-4l-5-1c-1 0-2-1-2-4 0-7 0-11-2-12-2-2-1-4 2-5l6-2c1-2 1-2 4 1 1 2 3 2 5 2zm23 2c0 2 1 4 3 5 4 4 4 7 2 11-2 3-3 4-3 2s-4-6-7-7l-3-1 3 3c3 4 5 7 5 10s-1 3-3-1l-4-4-2-1 2 2 2 4c0 1-1 1-2-1-5-4-8-5-13-4h-4l2-5c3-5 6-8 12-10 3-1 3-1 5 1l3 2-1-6c0-6 0-6 1-5l2 5zm96-2c4 4 5 7 2 8-2 1-7-5-7-9l1-3 4 4zm-260 2l-2 5c-2 2-2 2-4 0-2-1-2-1 1-5 4-4 5-4 5 0zm-10 7l3 2-2 3-3 2-1-5v-5l3 3zm280 0l-1 5v3l-3-3c-2-3-2-3 0-5s4-2 4 0zm-12 2l-1 3c-3 0-3 0-2-3 0-2 2-2 3 0zm-257 12v3l-8-8 1-3c2-1 7 3 7 8zm262-8c2 2 1 4-3 9-8 7-10 3-3-5 4-5 4-5 6-4zm-147 8l2 2c0 2-2 2-3 0-2-2-6-2-7 1 0 2-3 2-3-1l1-3c2-1 9-1 10 1zm-122 5l4 4-2 3-8 7c-2 0-1-7 1-8 2-2 2-2 0-5-3-3-4-5-2-6 1-1 3 0 7 5zm160-2c3 3 3 3 2 5-2 2-4 3-3 1 1-3-2-5-5-5l-2 2c0 3-2 3-3 0s-1-4 1-5c2-3 7-2 10 2zm-19-1c1 1 0 1-3 1-5 0-6-1-4-2 1-2 7-1 7 1zm135 0l-1 4v6c3 7 0 8-6 1l-4-4 4-5c5-4 6-5 7-2zm-167 2c2 2 10 4 13 3 2 0 3 2 0 2-5 3-14 0-15-5-1-3 1-3 2 0zm12 0c0 1 0 2-2 2s-4-2-2-3 3-1 4 1zm19 1l-4 1-2-1 3-1 3 1zm17 4l-3 1v-3c3-1 5 0 3 2zm-2 3h7c5-1 5 0 2 2-3 3-7 3-12 0-4-2-6-5-2-3l5 1zm-143 6c1 5 1 6-1 4-2-1-3-1-5 2-3 3-4 3-5 2l-2-2c0-2 8-11 10-11l3 5zm255 0c3 4 4 5 3 7-2 2-3 1-6-2l-4-3-2 3-4 3c-1 0 1-8 3-11s5-2 10 3zm-270 8l2 3-2 3c-3 5-4 4-4-3v-6l4 3zm15 4l-2 2c-1 1-1 1-3-1-2-1-2-2 0-4 1-2 2-2 3 0l2 3zm251-3c1 2 1 2-1 4s-2 2-3 0c-2-1-2-2-1-4 2-2 2-2 5 0zm12 3c0 4-1 4-3 2l-2-2 2-3c3-2 4-1 3 3zm-212 1l-4 9c-2 0-2-5 0-8 3-4 4-4 4-1zm-57 5c3 3 4 3 8-1 2-3 2-3 3-2 2 3 1 5-3 9l-5 4-5-5c-5-5-5-5-4-7 2-2 4-2 6 2zm252-1l3 4 3-4c3-3 3-3 5-1 2 1 2 1-3 6l-5 5c-1 0-4-2-6-5-5-4-5-4-3-6 2-3 2-2 6 1zm-258 11l4 5c0 2-9 9-10 9-3-1-2-3 1-6s3-4 0-6c-2-2-2-4-2-7 0-1 1-1 7 5zm251-1l4 6c0 1-8 9-10 9s-2-3 1-7l3-3-2-3c-2-1-3-2-2-4 1-3 3-2 6 2zm25-2l-1 5v11l-6-4-4-5 4-4c5-6 6-6 7-3zm-252 2l-1 4v3c2 2 3 8 1 8s-10-8-10-9c0-2 6-8 8-8l2 2zm31 1v4c-2 4-8 2-8-2s6-5 8-2zm165-1l1 4c-1 4-8 3-8-1s5-5 7-3zm-144 9l10 13c8 8 8 10 1 3-6-5-9-8-13-15-4-6-5-7-3-7l5 6zm119 0c0 2-16 20-18 20l14-19c2-2 4-3 4-1zm-180 6c4 5 4 5 3 7-2 1-2 1-5-1l-3-3-4 3-4 3-1-2c-2-2-2-2 3-7l5-5 6 5zm46-3v4c-2 4-8 2-8-2s6-5 8-2zm205 2c4 5 5 6 3 8-1 1-2 0-5-2l-3-3-3 3c-4 3-5 4-7 2-1-2 0-3 4-7l5-5 6 4zm-17 10c2 2 2 4-1 6s-3 2-4 0l-1-7-1-5 3 2 4 4zm-252-1c3 3 3 4-1 8l-3 2v-5l-1-7c0-2 1-1 5 2zm71-1v4c-2 4-8 2-8-2s6-5 8-2zm140 1c1 4-4 7-7 4-2-3 0-7 4-7l3 3zm-183-1l-1 4c0 3-2 4-4 2-1-2-1-2 1-4 2-3 4-4 4-2zm251 4l-1 4-3-2c-2-2-2-2 0-4 2-3 4-2 4 2zm-264-1l-1 4h-4c-2-2-2-2 0-4 2-3 4-2 5 0zm251-1c1 2 1 3-1 4-2 3-3 2-4 0-2-4 2-7 5-4zm-257 8l3 3 4-3c3-3 3-3 5-1 2 1 2 1 0 3l-3 2c-3 0-5 2-5 4 0 3-2 2-6-2-5-4-6-6-4-8 2-1 2-1 6 2zm69-1v4c-2 4-8 2-8-2s6-5 8-2zm126 1c0 6-7 7-8 2 0-4 1-5 4-5 3 1 4 1 4 3zm57 0l3 3 3-3c3-3 4-4 6-1 1 1 1 2-4 6-5 5-8 6-9 3 0-2-2-3-3-4-4-2-5-4-3-6s3-1 7 2zm-258 10l6 5-6 6c-5 4-6 5-7 4-1-2-1-4 1-7l3-2-3-3c-2-3-3-6-1-7 1-2 2-1 7 4zm83-3c2 1 2 2 1 4-2 4-8 2-8-2s5-5 7-2zm109 2c0 3 0 3-2 4-3 0-6-1-6-4 0-2 2-4 5-4 2 0 3 1 3 4zm84-2l-1 5c-2 3-2 3 0 5v6l-6-4-4-5 4-4c5-5 7-6 7-3zm-183 5c3 4-1 10-5 7-3-2-2-8 2-8l3 1zm89 2c1 2 1 2-1 4s-2 2-4 1c-5-2-3-8 2-8l3 3zm-78 5c2 4-3 9-6 5-2-2-3-4-1-6s6-1 7 1zm67-1l1 4c-1 3-6 4-8 1-1-2-1-2 1-4s4-2 6-1zm-157 6c4 4 5 5 4 7 0 3-1 3-5-1-3-4-4-4-7 0-2 2-3 3-5 2l-2-2 10-11 5 5zm252 0c5 6 6 6 4 8-2 1-2 1-5-2l-3-3-4 3-4 3-2-2-2-2 5-5 5-5 6 5zm-212-1c3 2 4 4 2 6h-3c-2-2-2-2-3-1-3 5-3-1-1-6 1-2 2-2 5 1zm-27-1l-1 2h-3v-2h4zm192 2c0 3-4 8-6 7-3-1-2-4 1-7s4-3 5 0zm29 0c-1 1-3 1-4-1l2-1 2 2zm-173 9l6 3c2 0 1 1-4 7l-5 4-4-4-4-4 2-3 3-6c0-2 1-1 6 3zm123-2l-2 3c-2 3 0 5 3 3 2-1 2-1 4 1 1 2 1 3-2 6l-3 3-5-6c-5-4-5-5-4-6l5-3c3-3 4-4 4-1zm-201 1l2 4c0 1-5 7-6 6v-12l4 2zm279 3c0 5-2 5-4 2-2-2-2-2 0-4 2-3 4-2 4 2zm-265-1v4l-2 2-2-2c-2-2-2-3 0-4 2-2 3-2 4 0zm41 2v4l-2-2c-2-2-2-2 0-4l1-2 1 4zm169-2c2 2 2 2 0 4h-3c-2-1-2-3-1-5 2-1 2-1 4 1zm42 0v4c-3 3-8-1-5-4 2-3 4-2 5 0zm-12 1c0 2-2 3-3 3l2-4 1 1zm7 7c2 2 3 2 6-2 2-2 3-2 4-1l3 2-7 8-4 3-5-5c-5-5-5-5-3-7s4-1 6 2zm-252 0l3 2 3-2c4-3 6-4 6-1 1 1 0 3-4 7l-5 5-5-5c-5-6-6-6-4-8s4-1 6 2zm42 0c3 3 3 3 5 2 2-2 8-3 8-1l-5 5-5 5-5-5c-4-5-5-6-4-7 2-2 2-2 6 1zm44 2h6l2 1-3 4-4 4-5-5c-5-6-6-6-4-8 2-1 7 1 8 4zm95-3c0 1-1 3-5 6l-5 5-5-4-3-3 2-2h4l5-2c3-2 6-3 7 0zm40-1c3 2 2 3-3 8l-5 4-4-4-5-5c0-2 5-2 7 0s2 2 5-1 3-3 5-2zm16 5c-3 1-4 2-5 1s0-2 3-3c5-2 5-1 2 2zm-211 0c0 2-2 2-3 0-1-1-1-1 1-1l2 1zm-5 4l-3 4-3 4 3 3c3 3 4 4 1 6-1 1-2 1-6-4l-5-5 5-5c4-5 6-6 7-5l1 2zm42 1l-3 4-3 3 3 3c3 4 3 4 2 6-2 1-2 1-7-4l-6-5 5-6c5-5 6-5 7-3l2 2zm125-3c1 2 1 3-2 5-3 4-3 4-1 6l3 4c1 1 1 1-1 3l-2 2-5-5-5-5 5-6 6-5 2 2zm16 5l4 5-5 5c-4 5-5 5-6 3-3-2-2-2 1-6l4-3-4-4c-3-2-4-3-2-4 2-2 4-1 8 4zm26-4c2 2 2 2-2 5l-3 3 3 5c3 3 3 3 2 5-2 1-2 1-8-4l-5-6 5-5 5-5 3 2zm15 3l5 5-2 3c-4 5-8 8-10 7-2-2-1-4 2-7l2-3-2-3c-3-3-4-4-2-6s2-2 7 4zm-251 1l5 4-4 5c-5 6-7 7-8 5s-1-4 1-7l3-3-3-2c-1-2-2-3-1-5 1-3 3-2 7 3zm42 0l5 5-4 5c-6 5-6 6-9 3-1-1-1-2 2-5l4-4-3-3c-4-3-5-5-3-5 3-1 3-1 8 4zm42 0l5 5-5 5c-5 5-6 5-8 4-1-2-1-4 3-7l2-2-3-4c-3-2-3-3-2-5 2-2 3-1 8 4zm24-2l-4 1c-3 0-3 0-1-2 1-2 2-2 3-1l2 2zm57 1l-4-1v-2c2-1 3-1 4 1 2 1 2 1 0 2zm111-2l-1 4c-2 3-2 3 0 6 3 8 1 9-6 2l-4-4 4-5c5-4 6-5 7-3zm-243 10c-3 2-3 2-5 0-1-2-1-3 1-4 1-2 1-2 3 0s2 2 1 4zm41-4c2 2 2 2 0 3-2 2-2 2-4 0-2-1-2-1 0-3l2-2 2 2zm126-1c2 2 1 5-2 6-1 0-2 0-3-2-1-1-1-2 1-3 2-2 2-2 4-1zm42 0c2 2 1 5-2 5s-5-3-3-5h5zm-224 16v4c-2 1-2 1-5-1-3-4-6-4-9 0-2 2-2 2-4 1-1-2-1-2 4-8l5-5 4 3 5 6zm40-3c4 5 4 5 3 7-2 1-2 1-5-2l-5-3-3 3c-3 4-4 4-6 1-1-2-1-3 4-7 5-6 5-6 12 1zm166-1c5 4 6 6 4 8-1 1-2 0-5-3l-4-3-3 4c-4 3-4 3-6 2l-1-3 9-10 6 5zm43 0c4 5 4 5 3 7l-2 2-4-4-4-3-3 3c-3 4-3 4-5 2-2-1-2-2 3-7l6-5 6 5zm-231 5l5 7-11 11-6-5-5-6 5-6 6-6 6 5zm168 0l5 7-6 6-5 5-6-5-5-6 11-12 6 5zm41 0l5 6c0 1-2 4-5 6l-5 5-5-5-6-6 10-11 6 5zm-167 1l5 6-5 5-6 5-6-5-5-6 5-5 5-5 7 5zm10-1c0 4-2 5-4 2-2-1-2-1 0-3 2-3 4-3 4 1zm-91 4l2 3-2 2c-3 4-4 4-4-3v-5l4 3zm278 4v3l-3-2-2-2 2-3c2-2 3-2 3 0v4zm-54-3v4c-2 1-2 1-4-1s-2-2-1-4c2-1 4-1 5 1zm43 0c1 1 1 1-1 3l-2 2-2-2c-2-2-2-2 0-3l2-2 3 2zm-251 1c0 3-4 5-6 3-2-3-1-5 3-5 2 0 3 1 3 2zm41 0c0 3-3 5-5 3s-2-2-1-4c2-2 6-1 6 1zm82 3c0 2-3 1-4-1v-3c1-1 2-1 3 1l1 3zm45-3l-5 4c0-1 2-5 4-5l1 1zm-134 6c3 4 4 4 8 0l3-4 2 3 2 2-3 3c-3 2-5 3-8 3-4 0-5 0-8-2-3-4-3-8 1-8l3 3zm137 5c-4 3-5 3-8 3l-5-3c-2-1-2-1 0-3h4c2 2 2 2 5-2l3-3 3 2 2 2-4 4zm31-5c3 4 4 4 7 0s6-4 7 0-11 10-16 6c-3-2-5-6-4-8 2-2 4-1 6 2zm49 1l3-4 2 2 3 2-3 3c-2 2-5 3-7 3-4 1-5 0-8-3-4-3-4-3-2-5 1-2 2-2 5 1l4 4 3-3zm-258 0l3 3 3-3c4-3 7-4 7 0 0 3-4 6-9 6-4 1-4 1-8-2-3-3-3-4-2-5 2-2 2-2 6 1zm84 0c2 3 3 3 4 2s5 0 6 2c1 1-6 3-9 3-3-1-8-7-8-8 1-3 3-2 7 1zm42 0c2 3 4 3 5 0 2-2 2-2 5 0l2 1-2 3-7 2c-4 1-4 1-7-2s-3-3-1-5c1-2 3-2 5 1z"/><path d="M243 223l2 3c2 2 2 2 3 1 1-4-3-7-5-4zm168 0c-1 2 3 6 4 4v-3c-1-2-2-2-4-1zm-125 0c-1 2 3 6 4 4v-3c-1-2-4-3-4-1zm-27 57c-1 4 0 12 1 9v-8l-1-5v4zm181 4c0 7 0 7 1 4v-8c-1-3-1-3-1 4zm-102-1l-5 4c-3 0-3 0-1 1h5c3 0 7-4 7-5h-1l-7 5 1-3 3-4c0-2 0-1-2 2zm23 0l3 3 1 1c0 2-2 1-6-2-3-3-3-3-2-1 2 3 7 5 11 4 2 0 2 0 0-1l-5-4-3-4 1 4zm-113 18a209 209 0 0 1 1 22c1-7 1-21-1-25v3zm203-1v22c1 4 1 4 1-4v-16c1-8 1-9-1-2zm-199 63c-3 1-6 3-7 5-2 4-2 4-1 7 2 5 3 5 9 0 4-4 4-5 4-10v-5l-5 3zm191 2c0 6 0 6 5 10 2 3 5 5 5 4l3-3c1-3 1-4-1-7-1-2-9-9-11-9l-1 5zm20 3l6 31 1 11-1-11c0-10-3-28-6-32v1zm-229 11l-2 11v3l2-11c2-10 2-12 0-3zm5 9c-3 9-3 17-2 22l1 5v-4c0-5 3-18 6-22 1-3 1-3-1-6l-3-2-1 7zm-9 19c0 1 0 2 1 1v-2c-1-1-1 0-1 1zm4 18l4 9 2 4c0-4-2-10-5-13s-3-3-1 0zm230 2l-3 9 1-2 4-9 1-2-3 4zm-11-203l2 3h3c1-2 0-4-3-4l-2 1zm-167 41c-1 1 2 4 4 3s1-4-1-4l-3 1zm66 122c-1 1 0 1 2 1l2-1c-1-2-4-2-4-1zm2 5l-2 1h2l3-1v-1l-3 1zm-95 8c-4 2-6 5-7 13-3 11-2 24 2 30 3 4 3 5 0 5l-3 1 1 1 4 2c4 3 4 7 0 8-4 0-7-3-3-4 1-1 1-1-1-1-5 0-8 6-5 12l6 6 3 3-2-3-2-6c0-3 0-3 7 3l7 6-1-4c-2-3-2-4-1-5s3 0 7 4c7 7 11 9 15 7l2-2h-4c-1-2-1-3 2-4h5c7 3 4 10-6 15l-6 3 4 2c5 1 8 4 11 8 2 5 1 7-5 8-4 0-5 0-6-2s2-4 4-2h1c0-2-4-3-7-3l-9 7c-9 8-11 8-7 0l2-4-3 1-7 7-4 4-1-2 2-7c2-3 2-3-3 2-4 4-5 6-5 9 0 4 3 7 6 7 2 0 2 0 1-1-4-1-1-4 3-4 4 1 4 5 0 8l-4 2-1 1 3 1c2 0 2 0 0 5-3 6-4 13-4 21 1 11 3 17 8 21 4 4 6 4 9 1 2-2 3-3 3-5 0-4-1-6-5-6-3 0-4 2-3 4h3l1-1c2 0 1 4 0 5-3 2-5 1-8-3s-3-12 0-14c2-2 4-2 5 0s2 1 2-1l-3-3-3-2 3-8c7-18 21-33 35-37 2-1 2-2 1-5-1-8 3-10 13-6 11 5 20 7 35 8 13 0 29-1 27-3h2l11-3 12-4c4 0 6 4 4 8l-1 3 6 3c12 6 22 16 29 31 5 12 6 14 2 15l-3 2c0 3 1 4 2 2 2-3 3-3 6 0 2 2 2 4 2 6-1 5-3 8-5 10s-2 2-5 1l-2-3c0-2 2-3 3-1h2c2-1 0-4-2-4-6 0-8 6-4 11 3 2 5 3 9 1 9-5 12-30 6-43l-3-6h5c1-1 0-2-1-2l-5-2c-2-2-2-3-2-5 1-2 2-3 4-3 3 0 5 3 3 4-1 1-1 1 1 1 8 0 6-13-2-19-3-2-3-2-2 0 2 2 4 7 3 9 0 1-2 0-7-5l-7-6 1 4c2 3 2 6 1 6l-6-5c-7-7-12-9-16-7l-2 2h2c1-2 3 0 3 2s-4 3-6 2c-9-2-7-10 5-16 5-2 6-3 4-3-7 0-17-10-14-15 2-3 11-3 11 0 0 2-2 4-3 2l-1-1c-2 0 0 3 2 3 4 1 7 0 14-6l7-6c1 0 1 4-1 6l-1 4 7-6 7-5c1 2-1 7-3 9-1 2-1 2 2 0 9-6 10-19 1-19-2 0-2 0-1 1l2 2-1 2h-2c-3 0-5-2-5-4s5-6 7-6c1 0 2 0 1-1 0-1-1-2-3-1h-2l2-5c8-18 2-45-10-45-5 0-8 10-4 12s9 0 6-3h-2c0 2-3 1-3-1 0-3 3-4 5-4 5 2 8 11 6 16-2 4-5 5-7 2l-2-1c-1 1 1 5 2 5 4 0 4 2 2 7-6 18-19 34-32 39-6 2-6 2-5 6v6c-1 2-2 2-5 2l-11-3c-12-6-17-6-36-6-18 0-27 1-39 7-10 4-13 3-13-6v-4l-5-2-12-9c-9-8-14-15-18-25-5-11-5-11-1-12l3-3c0-2-1-3-2 0h-4c-4-2-4-5-3-10 2-7 7-11 10-8v5l-1-1c0-2-3-1-3 1-2 3 2 4 6 2 3-2 3-7-1-10-3-2-5-2-8 0zm-1 27c2 2 0 6-3 6-2-1-3-5-1-6h4zm189 1v3c-4 3-7-1-4-4 2-1 3-1 4 1zm-186 9v4c-1 2-2 2-4 0s-2-2-1-4h5zm184 1c0 3-2 5-5 4v-5c1-2 5-1 5 1zm-179 10l-2 3c-3 2-6-2-4-4s6-1 6 1zm175 0c0 3-4 5-5 3-3-2-1-5 2-5 2 0 3 1 3 2zm-171 7c2 2 1 5-1 5-3 0-5-2-3-4s2-2 4-1zm165 2c0 3-3 4-5 3-1-2-1-4 1-5s4 0 4 2zm-157 8c0 2-1 3-3 3l-3-1c-1-3 1-5 3-5s3 1 3 3zm150-1c1 2-1 4-3 4s-3-2-2-5c0-2 5-1 5 1zm-73 12l1 2c1 2 2 2 4 0 2-1 7-2 7 0l-2 2-1 2 4-1c3-2 7-3 7-1l-2 2h1l5-1 4 1c-1 2 0 2 4 2s6 1 4 2c-1 1 0 1 2 1 4 0 9 2 9 3s-5 3-8 3l-3 1c0 1-1 2-4 2-4 0-5 0-4 2l-4 1-5-1h-1l2 2c0 2-4 1-7-1l-4-1 2 2 2 2c-1 2-7 1-8 0-2-2-3-2-4 0s-2 3-6 3-6-1-6-3-2-3-4-1c-1 2-7 2-7 0l2-1 1-2-3 1c-3 2-8 3-8 1l2-2v-1l-6 2-4-1c1-2 0-2-3-2-5 0-7-1-5-2 1-1 0-1-2-1-4 0-9-2-9-3s5-3 9-3c2 0 3 0 2-1-2-1 0-2 5-2 3 0 4 0 3-2l4-1 6 1c1 1 1 1 0 0l-2-2c0-2 5-1 8 1l3 1-1-2-2-1c0-2 5-2 7 0 2 1 4 1 4-2l1-1h10zm-77 39c0 3-3 4-5 2-3-2-1-5 2-5 2 0 3 1 3 3zm150-2c2 2 0 5-3 5-2 0-4-2-3-4s4-2 6-1zm-159 7c2 0 3 3 1 5-3 2-6-2-4-5h3zm164 0c2 0 3 5 1 5-2 1-5-1-5-2l1-3h3zm-167 10c0 3-1 4-3 4-3 0-5-3-3-5s5-1 6 1zm174 0c2 1 1 4-2 4s-5-3-3-4c2-2 3-2 5 0zm-178 10c0 2-3 5-5 3-2-1-2-3 0-4 1-2 4-2 5 1zm183 1c-1 3-4 4-6 1-1-1-1-2 1-3 2-3 5-1 5 2zm-187 8c2 3-1 5-3 4-2 0-3-5-1-5 2-1 3-1 4 1zm189-1c2 2 1 4-1 5s-3 1-4-1c-2-3 2-7 5-4z"/><path d="M341 488l-5 1c-6 1 3 4 14 4 7 0 16-2 16-3 0-2-18-4-25-2zm-36-14h3c1-1 1-1-1-1l-2 1zm88 0h3l-3-1v1zm-123 10h7c2-1 0-1-4-1l-3 1zm151 0h12l-6-1-6 1zm-150 12c-4 1-3 1 2 1h7c0-1-6-2-9-1zm152 1h7c2-1 0-1-3-1l-4 1zm-118 9l2 1c2 0 2 0 1-1h-3zm88 0c-2 1-2 1 0 1l3-1h-3zm11-80l2 2c5 2 4 6-1 4s-6 0-1 2l3 3c0 2-1 2-5 1-5-3-6-1-2 2 5 4 3 5-2 3-6-2-8-1-3 1l4 3c0 2-1 2-6 0h-6v1c4 0 6 0 8 2s2 2 5 1c6-3 15-21 12-24-2-2-8-2-8-1zm-112 5c-3 1-4 4-2 10l1 3 2-3 5-4c2-1 3-1 2-2l-5 1c-4 3-5 1-2-3 4-4 4-5-1-2zm7 11l-5 4c-1 1 2 6 6 8 3 1 3 1 6-2l7-4 3-1h-3c-2 0-3 0-2-1 1-3-3-2-8 1-4 3-5 4-6 2-1-1 0-2 6-7 4-3 1-3-4 0zm2 84l-8 7c0 2 10 8 11 7l-1-2c-4-3-7-6-6-7 1-2 3-1 7 2s8 4 7 2 0-2 2-2c3 0 3 0-2-2l-6-4c-1-2-2-2-4-1zm95 3c0 1-3 3-6 3-2 1-4 2-2 2l5-1c7-3 9 0 2 3-3 1-3 1-1 2l5-1 4-1-3 4c-4 3-2 5 2 3s5-2 5-1l-3 4c-5 2-4 4 2 2 4-2 5 0 1 3s-4 4 0 3c6-1 7-2 5-8-2-5-7-13-10-15-2-2-6-3-6-2zm-106 11c-1 5-1 6 2 9 1 2 2 2 3 1s1-2-1-3c-4-4-3-6 1-3 5 2 7 1 3-2l-5-4c-2-2-2-2-3 2zm170 1l4 13c4 5 4 4 1-2l-4-9-1-2zm-221 1l-3 10c-4 7-4 7-1 3 3-3 6-11 5-14-1-1-1-1-1 1zm230 35l1 3v-6c-1-1-1 0-1 3zm-238 6c0 9 4 25 6 29h1c-3-7-5-20-6-28l-2-10 1 9zm237 5l-2 11-2 9 5-21c-1-2-1-2-1 0zm-222 14c-3 5-3 7 0 11l7 5 4 2v-5c1-5 0-6-4-10l-5-5-2 2zm201 3c-3 4-4 4-4 9v6l3-1c4-2 11-8 11-11s-3-8-5-8l-5 5zm-199 58a210 210 0 0 1 0 20c2-5 2-20 1-26-1-3-1-2-1 6zm203 1c-1 9-1 16 1 20v-7a189 189 0 0 1 0-23l-1 10zm-11 32c0 6 0 7 1 5v-8l-1-6v9zm-181-3v8c1 4 1 3 1-3 1-7 0-11-1-5zm73-1l1 1h2c1-1 2 0 5 1l5 3-4-3c-3-3-8-4-9-2zm29 1c-2 0-3 2-4 3-1 2-1 2 2-1 4-3 6-4 6-2l-2 2-2 2 3-1c1-2 4-3 5-3v-1c-2-1-5-1-8 1zm-24 3c2 3 3 5 3 3l-2-3-1-1zm82 12h1v-2l-1 2zm-67-121l3 1h2l-2-1h-3zm0 7c0 1 3 1 4-1l-2-1c-2 0-3 0-2 2zm-65 119c-2 2-2 3 1 3 2 0 3-1 2-3 0-2-1-2-3 0zm-42 41c-2 2-2 2-1 3 1 2 4 0 4-2 0-3-1-3-3-1zm167 0c-1 1-1 4 1 4l3-4c-1-2-2-2-4 0zm43 0c-2 1-2 2-1 3 2 1 3 1 4-1 2-3-1-5-3-2zm-168 0c-2 1-2 2-1 3l3 1c1 0 2-3 1-5-1-1-2-1-3 1zm256-424l-4 3 3-1 4-2v7l3 1c2 0 3-1 1-1s-2-1-1-5c0-5 0-5-6-2zm12 3l3 2-2-2h-1zm-28 50l1 2 1-1-1-2-1 1zm3 9l1 2h1l-1-2h-1zm5 10l1 1 1-1-2-1-1 1zm62 12h2l-2-1v1zm-10 9l2 1 1-1-1-2-2 2zm-4 13c-2 1-1 3 2 3l2-2c0-2-3-3-4-1zM119 335v1l-1 1-2 1h2l2-2c0-2-1-3-1-1zm-18 30c-2 1-1 3 2 3 3-1 4-4 1-4l-3 1zm479-29l2 2c1 0 2 0 1-1-1-3-3-3-3-1zm15 29c-1 2 0 3 3 3 2 0 2 0 2-2-1-2-4-3-5-1zm-451-31v1l1-1v-1l-2 1zm26 33l-1 2h1v-2zm1 15c0 3 1 4 2 2v-2h-2zm-2 10v3l1-3h-1zm-5 10l1 1 1-1-1-1-1 1zm-54 21l2 1 1-1-1-2-2 2zm3 14c0 2 1 2 3 2 1 0 2 0 2-2l-2-2c-2 0-3 1-3 2zm-25-8h1l2-1c0-2-2-1-3 0zm32 26l-3 10-2 6 3-6c2-5 4-16 3-16l-1 6zm490-27c-1 1 0 2 2 2v-1c0-2-1-2-2-1zm-30 25c-1 1 1 11 4 15l-1-4-2-9c0-4-1-5-1-2zm-408-15l-4 8 2-2 3-6 1-2-2 2zm-4 40l2 1c1 1 2 0 2-1l-2-1-2 1zm360 0l2 1c1 1 2 0 2-1l-2-1-2 1zm-388-12l4 3c9 4 10 7 4 6h-4l3 3c4 3 6 4 8 2 2-3-1-7-8-11l-7-3zm-12 16l-3 3-4 3-3 2 4 3c6 5 10 6 16 6 7-1 8-3 1-3-6-1-16-5-16-6 1-2 10-5 17-6l7-1-6-1h-13zm19 20l-3 3 4-1c5 0 6 2 0 5l-2 2c2 0 7-4 9-7v-4c-2-2-4-1-8 2zm412-35h1l2-1-3 1zm-7 3c-6 3-9 7-7 9 2 3 4 2 8-1l4-3h-5c-5 1-5 0 1-4 5-4 4-4-1-1zm10 11l-4 2 4 1c8 2 15 5 15 6-1 2-9 5-16 6l-6 1 5 1c8 2 12 1 17-4l5-4-5-4-10-5h-5zm-17 19v4l7 6-1-2c-4-3-4-4 1-4l4 1-3-3c-4-3-6-4-8-2zm11 11l2 1h1l-3-1zM88 552l3 1c1-1-1-3-3-3v2zm522-1l-1 2 3-1c1-2 0-3-2-1zm-441-50c-2 1-1 2 1 2l2-1c0-2-2-3-3-1zm-1 34c0 2 5 9 6 9l-1-2-3-6c-1-3-2-3-2-1zm361-34l2 2 1-1c-1-2-3-2-3-1zm-416 42c0 2 1 2 3 2 1 0 2 0 2-2l-2-2c-2 0-3 1-3 2zm-3 15l2 1 1-1-1-2-2 2zm-3 10l-1 3 2-2 2-3-3 2zm57 10l1 1 1-1-2-1v1zm4 8c0 2 1 3 2 2l-1-3-1 1zm3 10l2 2c1 0 1-2-1-3l-1 1zm-2 15l1 1c1 1 1 0 0 0 0-2-1-2-1-1zm413-68l3 2c2 0 2 0 2-2 0-1-1-2-3-2l-2 2zm5 15l2 1 1-1-1-2-2 2zm10 9h2l-2-1v1zm-62 11v1l1-1v-1l-1 1zm-4 8l-1 2h1l1-2h-1zm-4 11l1 1 1-2-1-1-1 2zm8 17h1v-2l-1 2zm21 32l-1 2 1-2c1-1 0-2-1 0zM88 685c-1 1 1 2 3 0 3-1 2-2 0-2s-3 1-3 2zm520 0c3 1 5 2 5 0l-4-2c-2 0-2 0-1 2zm-11 11l1 1 1-1-2-1v1zm-503 2c-1 0-1 2 1 2l1-1v-2l-2 1zm510 1l2 1 1-1-1-1-2 1zm-517 6v2c1 1 3-1 3-3s-2-1-3 0zm523-1l1 2h2c1-1 0-3-1-3l-2 1zm-444 38c-3 2-3 9-1 12l5 2c2 0 5-2 4-4-1-1-2-1-2 1-2 2-4 1-4-2s2-3 6-2c2 0 5 2 10 7l6 7 3 5c2 2 3 3 2 4l1 2c4 3 4 5 1 2l-4-1 6 4 5 5-3-1c-4-2-6-3-4-1l6 4 6 3h-4c-6-1-5-1 3 2l10 6a498 498 0 0 1-30-41l-12-14h-10zm358 1l-8 8a14420 14420 0 0 1-29 38l-8 9 10-5c10-4 14-7 8-5-5 2-4 0 2-3 6-4 7-5 1-2-5 3-5 1 0-3l6-4h-1c-4 1-5 1-1-2l1-2c-1-1 0-2 2-4l4-5c0-3 8-11 12-13 5-3 8-2 9 1 0 2-2 3-4 1-1-1-1-1-1 1 0 4 7 4 9-1 4-8-3-14-12-9zm27 15c-7 4-16 10-30 24-9 9-2 4 9-6a125 125 0 0 1 29-21l-8 3zm-401 2c6 3 8 5 20 15 14 13 21 17 10 7-17-16-21-19-29-23-6-3-6-2-1 1zm-4 4c0 3 1 3 1 1l-1-3v2zm408-2l-1 2h1v-2zm-412 3l-5 6c-6 4-7 8-1 12 5 3 5 3 3-2-1-5 0-9 3-12 1-1 2-2 1-4l-1-2v2zm415 1l2 4c3 2 4 7 1 12l-2 4 4-2c5-3 6-4 6-7 0-2-1-4-4-6l-6-6-1-2v3zm-403 2l3 1-2-2c-2-1-2-1-1 1zm390 0v1l2-1c2-2 1-2-2 0zm-8 6v1l1-1v-1l-1 1zm-425 13l4 1c2-1 0-3-3-3-2 0-2 0-1 2zm474-1c-1 1 0 2 1 2l4-1c1-2 1-2-2-2l-3 1zm-385 14l-1 1 1 1h2c3-1 3-1 3 1-1 1-1 1 0 0v-3c-1-2-3-2-5 0zm296-1l-1 1 3 2h2l1-1v-1c-1-2-5-2-5-1zm-309 3h3c5-1 5-1 1-1l-5 1zm320-1l3 1h3l-6-1zm-317 7l-5 7-9 21c0 2-6 6-16 11l-11 7 10 5c1 0 2-1 2-4l3-6 2-2v2l-2 7c0 4 0 4 4 6s7 2 3 0l-2-3 3 1c4 2 6 1 3-1-4-3-3-5 1-3 6 2 7 1 3-2-6-4-5-5 2-2l5 1-4-3c-6-3-5-5 1-3l4 1-3-4-4-3h4l4 1-3-4c-2-3-2-5 1-3s5 1 3-1v-2l3-6c1-3 3-5 7-9l8-5 4-1v-4l-2 1c-1-1-4 0-9 4a303 303 0 0 1-16 8l9-8 9-6-4-1c-4 0-6 1-8 3zm298-2c0 3 2 6 4 6 5 0 16 10 17 15l2 5v2c-1 2 0 3 3 1s4 0 1 3c-3 4-3 5 1 3 4-1 4 0 0 3l-3 4 4-2c6-1 7 0 1 4-4 3-4 3 1 1 7-2 8-1 2 3-4 3-3 4 3 2 4-2 5 0 2 3-4 2-2 3 2 0 4-2 5 0 1 3-3 3-2 3 3 0 4-2 4-2 3-7l-1-6c0-3 1-2 3 1l2 6c0 2 0 3 2 3l10-5c1-1-5-5-16-10l-9-5-6-14c-6-16-10-20-18-20l-4 1 3 1c0-1 1-1 0 0l6 5c7 5 11 9 9 9l-19-11c-2-2-4-3-6-2-2 0-2 0-1-1v-2l-2 1zm-206 3l5 7 3 4 1-2c0-2 0-2-1-1-1 0-2 0-1-2l-1-2h-1l-6-6 1 2zm134 0l-2 3-2 1-1 2v2l-1 2 5-5 4-7-3 2z"/><path d="M175 816c-8 11-9 11-24 12-16 1-20 3-22 10-1 4 0 6 5 9 6 3 7 2 3 0-5-4-3-5 3-2h4c-4-2-2-3 3-3 4 1 5 1 4-1-1-1 2-2 6-1 3 0 3 0 2-1-1-2-1-2 1-2l3-2 4-2c2 0 3 0 2-1-2-1-1-3 2-3 2 0 3 0 2-1-3 0-2-3 0-4l2-1c-1-1 0-3 1-4l6-11-7 8zm39-7c-2 2-1 3 1 2l2-2h-3zm270 1l2 1v-1l-2-2v2zm36 2l4 7 2 4v1l3 2c1 1 1 1-1 2-2 0-2 1 1 1 4 1 5 3 2 3l2 1c2 0 4 1 3 2 0 1 1 2 3 2 3 0 4 1 2 2-1 1 0 1 2 1 5-1 8 0 6 2h3l6 1-1 1-2 2 4-1c5-2 8-2 8-1l-1 1-3 2c-2 2-1 1 3-1l6-2v-4c-1-5-5-9-11-11l-15-2c-11 0-11 0-14-3l-8-9c-5-7-7-8-4-3zm-293 1l1 1v-1l-1-1v1zm245 0v1l1-1v-1l-1 1zm-238 6l3 1-1-2c-2-2-3-1-2 1zm230 0v1l2-1v-2l-2 2zm-194 4c2 3 12 9 13 8l-14-11 1 3zm154 3l-8 6s8-3 11-6l5-6-8 6zm-183-2l3 1-1-2c-2-2-3-1-2 1zm216 0v1l2-2c2 0 2-1 1-1l-3 2zm-170 3c0 3 8 13 13 16l6 4 3 1c2 0 2 0-2-2-5-2-10-7-16-14l-4-5zm-39 1l3 2h3l-2-2h-4zm162 3c-4 6-11 12-16 15-5 2-5 2-3 2l3-1 3-2c6-3 11-8 14-13 3-6 2-6-1-1zm38-3l-1 2 3-1c3-2 2-3-2-1zm-172 13l18 6-2-2a241 241 0 0 1-16-4zm146 0l-10 4c-5 1-6 2-4 2l18-7-4 1zm-124 7h2l-2-1v1zm102 0h2c1-1 0-1-1-1s-2 0-1 1zm-73 16l1 1 1-2h-1l-1 1zm45 0l1 1c2-1 1-2-1-2v1zm-160 16h2c1-1 0-1-1-1s-2 0-1 1zM100 614l1 2h3c3 0 2-3-1-4-3 0-3 0-3 2zm16 28l2 1 1 1v1c1 1 1 0 1-1l-2-2h-2zm479-28l2 2 3-2c1-2 1-2-2-2-2 0-3 0-3 2zm-15 30l1 1 2-1c1-1 0-2-1-2l-2 2zM347 799h4c1-1 0-1-2-1s-3 0-2 1zm9 8l1 1-1-1c-1-1-1-1 0 0zm-22 16v1l1-2-1 1zm-36 37l2 1-1-2c-2-1-2-1-1 1zm103 0h1l2-2h-1l-2 2zm-313 6l1 1 1-1-1-1-1 1zm42 24l-1 2 4-4-3 2zm-40 2c-2 2-2 2 2 1h7c2 0 2 0 1-1H90zm194-33h2l-2-1v1zm131 0h2l-2-1v1zm195 7l1 1 1-1-1-1-1 1zm-41 24l5 3c1 0 1-1-1-2l-5-2 1 1zm31 2c-1 1-1 1 1 1h7c4 1 4 1 3-1h-11zm-348-23l5 3 3 2-3-2c-1-2-4-3-5-3-2-1-2-1 0 0zm193 1l-4 3 8-4c3-2 0-1-4 1zm42 9c-2 1-2 1 0 1l2-1v-1l-2 1zm52 9l2 2-1-2-2-2 1 2zm-194-5l2 1-1-2c-2-1-2-1-1 1zm8 0l-1 3 2-2 2-3-3 2zm-59-1h2l-2-1v1zm111 0h2l-2-1v1zm-159 8h4c1-1 0-1-2-1s-3 0-2 1zm-21 3zm228-3h2c1-1 0-1-1-1s-2 0-1 1zm9 1a334 334 0 0 1-1-1h-4l5 1z"/></svg>